<?xml version="1.0" encoding="UTF-8" standalone="no"?>
<!-- Created with Inkscape (http://www.inkscape.org/) -->

<svg
   width="120.4449mm"
   height="27.484072mm"
   viewBox="0 0 120.4449 27.484072"
   version="1.1"
   id="svg1"
   inkscape:version="1.3 (0e150ed6c4, 2023-07-21)"
   sodipodi:docname="oedg-regular.svg"
   xmlns:inkscape="http://www.inkscape.org/namespaces/inkscape"
   xmlns:sodipodi="http://sodipodi.sourceforge.net/DTD/sodipodi-0.dtd"
   xmlns="http://www.w3.org/2000/svg"
   xmlns:svg="http://www.w3.org/2000/svg">
  <sodipodi:namedview
     id="namedview1"
     pagecolor="#ffffff"
     bordercolor="#999999"
     borderopacity="1"
     inkscape:showpageshadow="0"
     inkscape:pageopacity="0"
     inkscape:pagecheckerboard="0"
     inkscape:deskcolor="#d1d1d1"
     inkscape:document-units="mm"
     inkscape:zoom="0.80978535"
     inkscape:cx="362.44172"
     inkscape:cy="110.52312"
     inkscape:current-layer="layer1" />
  <defs
     id="defs1" />
  <g
     inkscape:label="Layer 1"
     inkscape:groupmode="layer"
     id="layer1"
     transform="translate(-8.9957904,-119.32708)">
    <g
       id="g126"
       transform="matrix(1.4610146,0,0,1.4610146,-49.7446,-32.685688)"
       style="stroke-width:0.684457">
      <g
         id="g122"
         style="stroke-width:0.684457">
        <path
           class="st0"
           d="M 49.014307,110.65646 49.117748,110.7599 49.240997,110.88315 C 49.500699,111.14286 49.850638,111.2639 50.211581,111.2507 50.572523,111.2639 50.922462,111.14286 51.182164,110.88315 L 51.305413,110.7599 51.408854,110.65646 55.355014,106.7103 C 55.892026,106.17329 55.837005,105.25113 55.231765,104.64369 L 55.128325,104.54025 C 54.520884,103.93281 53.600921,103.87778 53.061707,104.417 L 50.211581,107.26712 47.361454,104.417 C 47.108354,104.1639 46.773821,104.04285 46.423883,104.04725 46.027726,104.05165 45.618364,104.21892 45.294836,104.54025 L 45.191396,104.64369 C 44.583955,105.25113 44.528934,106.17109 45.068147,106.7103 Z"
           id="path119"
           style="fill:#214478;fill-opacity:1;stroke-width:0.181096" />
        <path
           class="st0"
           d="M 51.411055,116.24667 51.307614,116.14323 51.184365,116.01998 C 50.924662,115.76028 50.574724,115.63923 50.213781,115.65244 50.202777,115.65244 50.191773,115.65024 50.180768,115.65024 V 115.65024 C 49.833031,115.64584 49.496298,115.76688 49.243198,116.01998 L 49.119949,116.14323 49.016508,116.24667 45.068147,120.19283 C 44.531135,120.72985 44.586156,121.65201 45.191396,122.25945 L 45.294836,122.36289 C 45.902277,122.97033 46.82224,123.02535 47.361454,122.48614 L 50.211581,119.63601 53.063908,122.48834 C 53.600921,123.02535 54.523085,122.97033 55.130525,122.36509 L 55.233966,122.26165 C 55.841406,121.65421 55.896428,120.73425 55.357215,120.19504 Z"
           id="path120"
           style="fill:#214478;fill-opacity:1;stroke-width:0.181096" />
        <path
           class="st1"
           d="M 46.92128,114.5476 47.044528,114.42435 C 47.304231,114.16465 47.425279,113.81471 47.412074,113.45377 47.425279,113.09283 47.304231,112.74289 47.044528,112.48319 L 46.92128,112.35994 46.817839,112.2565 42.869478,108.30593 C 42.616377,108.05283 42.281845,107.93179 41.931907,107.93619 41.53575,107.94059 41.126388,108.10786 40.80286,108.42918 L 40.699419,108.53262 C 40.091979,109.14006 40.036958,110.06003 40.576171,110.59924 L 43.428499,113.45157 40.576171,116.3039 C 40.039158,116.84091 40.09418,117.76307 40.699419,118.37051 L 40.80286,118.47395 C 41.410301,119.0814 42.330264,119.13642 42.869478,118.5972 L 46.815638,114.65104 Z"
           id="path121"
           style="fill:#7b9a00;fill-opacity:1;stroke-width:0.181096" />
      </g>
      <path
         class="st1"
         d="M 60.304771,109.70349 C 59.637908,109.33594 58.889612,109.15327 58.059884,109.15327 57.230156,109.15327 56.477458,109.33814 55.801791,109.71009 55.126124,110.08204 54.600116,110.59044 54.221566,111.23749 53.843016,111.88455 53.653741,112.61084 53.653741,113.41636 53.653741,114.22187 53.843016,114.94816 54.221566,115.59522 54.600116,116.24227 55.128325,116.75067 55.801791,117.12262 56.475257,117.49457 57.227955,117.67944 58.059884,117.67944 58.889612,117.67944 59.637908,117.49677 60.304771,117.12922 60.971635,116.76168 61.495442,116.25328 61.878393,115.60182 62.261345,114.95036 62.452821,114.22187 62.452821,113.41636 62.452821,112.61084 62.261345,111.88235 61.878393,111.23089 61.495442,110.58163 60.971635,110.07103 60.304771,109.70349 Z M 61.112491,115.19466 C 60.808771,115.72507 60.390605,116.14103 59.855794,116.44035 59.320982,116.73967 58.722346,116.88933 58.059884,116.88933 57.397422,116.88933 56.796584,116.73967 56.257371,116.44035 55.718158,116.14103 55.295591,115.72507 54.987469,115.19466 54.679347,114.66425 54.527487,114.07001 54.527487,113.41636 54.527487,112.7627 54.681548,112.16846 54.987469,111.63805 55.295591,111.10764 55.718158,110.69168 56.257371,110.39236 56.796584,110.09304 57.397422,109.94338 58.059884,109.94338 58.722346,109.94338 59.320982,110.09304 59.855794,110.39236 60.390605,110.69168 60.808771,111.10764 61.112491,111.63805 61.416211,112.16846 61.568071,112.7627 61.568071,113.41636 61.568071,114.07001 61.416211,114.66425 61.112491,115.19466 Z"
         id="path122"
         style="fill:#214478;fill-opacity:1;stroke-width:0.181096" />
      <path
         class="st1"
         d="M 69.814731,110.10405 C 69.218296,109.60225 68.39517,109.35135 67.345355,109.35135 H 64.264137 V 117.5848 H 65.135681 V 114.98558 H 67.347556 C 68.397371,114.98558 69.222697,114.73688 69.816932,114.23948 70.413368,113.74208 70.710486,113.05321 70.710486,112.17506 70.708285,111.29692 70.411167,110.60584 69.814731,110.10405 Z M 69.191885,113.68706 C 68.760515,114.0436 68.137668,114.22187 67.321145,114.22187 H 65.13348 V 110.10405 H 67.321145 C 68.137668,110.10405 68.760515,110.28232 69.191885,110.63886 69.623256,110.9954 69.838941,111.5082 69.838941,112.17506 69.838941,112.82652 69.623256,113.32832 69.191885,113.68706 Z"
         id="path123"
         style="fill:#214478;fill-opacity:1;stroke-width:0.181096" />
      <polygon
         class="st1"
         points="166.31,38.79 188.01,38.79 188.01,35.37 162.36,35.37 162.36,72.78 188.81,72.78 188.81,69.36 166.31,69.36 166.31,55.47 185.66,55.47 185.66,52.1 166.31,52.1 "
         id="polygon123"
         style="fill:#214478;fill-opacity:1;stroke-width:0.822842"
         transform="matrix(0.22008702,0,0,0.22008702,36.858901,101.56687)" />
      <polygon
         class="st1"
         points="198.11,72.78 202.07,72.78 202.07,42.42 226.12,72.78 229.38,72.78 229.38,35.37 225.48,35.37 225.48,65.73 201.37,35.37 198.11,35.37 "
         id="polygon124"
         style="fill:#214478;fill-opacity:1;stroke-width:0.822842"
         transform="matrix(0.22008702,0,0,0.22008702,36.858901,101.56687)" />
      <polygon
         class="st0"
         points="276.2,29.02 238.69,29.02 238.69,78.66 277.12,78.66 277.12,69.44 250.11,69.44 250.11,57.95 273.15,57.95 273.15,49.02 250.11,49.02 250.11,38.24 276.2,38.24 "
         id="polygon125"
         style="fill:#7b9a00;fill-opacity:1;stroke-width:0.822842"
         transform="matrix(0.22008702,0,0,0.22008702,36.858901,101.56687)" />
      <path
         class="st0"
         d="M 107.96902,108.63386 C 107.05786,108.18048 106.01024,107.956 104.82397,107.956 H 99.861011 V 118.87891 H 104.82397 C 106.01024,118.87891 107.05786,118.65223 107.96902,118.20105 108.88018,117.74767 109.58666,117.11162 110.09066,116.28849 110.59466,115.46757 110.84776,114.51019 110.84776,113.41636 110.84776,112.32472 110.59466,111.36735 110.09066,110.54422 109.58666,109.72329 108.88018,109.08724 107.96902,108.63386 Z M 107.31536,115.89013 C 106.6661,116.49757 105.79456,116.80349 104.70072,116.80349 H 102.39201 V 110.02922 H 104.70072 C 105.79236,110.02922 106.6639,110.33294 107.31536,110.94258 107.96462,111.55222 108.29034,112.37534 108.29034,113.41636 108.29034,114.45737 107.96462,115.28049 107.31536,115.89013 Z"
         id="path125"
         style="fill:#7b9a00;fill-opacity:1;stroke-width:0.181096" />
      <path
         class="st0"
         d="M 120.13323,116.44475 C 119.55,116.75728 118.89414,116.91354 118.16785,116.91354 117.48118,116.91354 116.86934,116.76608 116.33452,116.46896 115.79751,116.17184 115.37935,115.75808 115.07783,115.22767 114.77631,114.69726 114.62445,114.09422 114.62445,113.41856 114.62445,112.73188 114.77411,112.12444 115.07783,111.59183 115.37935,111.06142 115.79971,110.64986 116.34113,110.35935 116.88254,110.06883 117.50099,109.92137 118.19866,109.92137 119.3013,109.92137 120.24327,110.33294 121.02238,111.15386 L 122.64442,109.65507 C 122.11401,109.04103 121.45815,108.57224 120.67904,108.25091 119.89993,107.92959 119.03059,107.76672 118.07321,107.76672 116.92876,107.76672 115.89875,108.00882 114.98319,108.49301 114.06763,108.9772 113.35235,109.64847 112.83734,110.5068 112.32234,111.36514 112.06484,112.33573 112.06484,113.41636 112.06484,114.49698 112.32234,115.46757 112.83734,116.32591 113.35235,117.18424 114.06323,117.85551 114.96778,118.3397 115.87234,118.82389 116.89134,119.06599 118.02699,119.06599 118.81711,119.06599 119.60282,118.94714 120.38413,118.70725 121.16323,118.46735 121.84991,118.12402 122.44414,117.67724 V 113.24469 H 120.13543 V 116.44475 Z"
         id="path126"
         style="fill:#7b9a00;fill-opacity:1;stroke-width:0.181096" />
    </g>
  </g>
</svg>
