<svg xmlns="http://www.w3.org/2000/svg" width="315.63" height="76.613" viewBox="0 0 315.63 76.613">
  <g id="Group_4622" data-name="Group 4622" transform="translate(-74.534 -260.66)">
    <path id="Path_4309" data-name="Path 4309" d="M542.038,375.955H540.47v4.231h-.809v-4.231h-1.555v-.734h3.932Zm6.209,4.231h-.809V375.98l-1.393,4.206h-.7L543.9,375.98v4.206H543.1v-4.965h1.343l1.27,3.82,1.232-3.82h1.306Z" transform="translate(-235.639 -58.233)" fill="#00b7f1"/>
    <path id="Path_4310" data-name="Path 4310" d="M195.2,389.968H193.34V376.089h9.032V377.8H195.2v4.014h6.32v1.708H195.2Zm16.657-.363a14.637,14.637,0,0,1-4.249.555c-2.562,0-4.463-1.153-4.463-4.569v-6.3h1.751V385.7c0,2.327,1.132,2.8,2.818,2.8a8.721,8.721,0,0,0,2.37-.235v-8.968h1.772Zm2.161-14.584h1.772v11.616c0,1.409.406,1.814,1.025,1.814a1.805,1.805,0,0,0,.855-.192l.512,1.559a4.005,4.005,0,0,1-1.58.3c-1.452,0-2.583-.875-2.583-3.48Zm5.3,3.651c0-2.84,1.559-3.844,3.651-3.844a5.891,5.891,0,0,1,2.69.62l-.534,1.58a4.453,4.453,0,0,0-2.157-.534c-1.132,0-1.879.534-1.879,2.157v.64h3.929v1.666h-3.929v9.011h-1.772Zm8.258-3.758a1.121,1.121,0,1,1-1.132,1.132A1.126,1.126,0,0,1,227.576,374.915Zm-.876,4.377h1.751v10.677H226.7Zm3.867-4.27h1.772v11.616c0,1.409.406,1.814,1.025,1.814a1.8,1.8,0,0,0,.854-.192l.512,1.559a4,4,0,0,1-1.58.3c-1.452,0-2.583-.875-2.583-3.48Zm5.009,0h1.772v11.616c0,1.409.406,1.814,1.025,1.814a1.8,1.8,0,0,0,.854-.192l.512,1.559a4,4,0,0,1-1.58.3c-1.452,0-2.583-.875-2.583-3.48Zm18,15.694c0,3.331-1.9,4.569-4.505,4.569a7.981,7.981,0,0,1-3.929-.9l.512-1.537a7.09,7.09,0,0,0,3.417.769c1.644,0,2.733-.6,2.733-2.9v-.855a8.891,8.891,0,0,1-2.477.3c-2.5,0-4.463-1.067-4.463-4.569v-6.3h1.751V385.7c0,2.306,1.111,2.8,2.819,2.8a8.677,8.677,0,0,0,2.37-.277v-8.926h1.773Zm1.578-6.3c0-3.8,1.964-5.317,4.633-5.317s4.634,1.516,4.634,5.317v.448c0,3.78-1.965,5.3-4.634,5.3s-4.633-1.516-4.633-5.3Zm7.494,0c0-2.754-1.089-3.651-2.861-3.651s-2.861.9-2.861,3.651v.448c0,2.733,1.089,3.63,2.861,3.63s2.861-.9,2.861-3.63Zm12.142,5.189a14.64,14.64,0,0,1-4.249.555c-2.562,0-4.463-1.153-4.463-4.569v-6.3h1.751V385.7c0,2.327,1.132,2.8,2.819,2.8a8.715,8.715,0,0,0,2.37-.235v-8.968h1.773Zm2.172-9.95a11,11,0,0,1,3.352-.534,9.5,9.5,0,0,1,2.284.277l-.512,1.6a5.954,5.954,0,0,0-1.665-.214,4.713,4.713,0,0,0-1.687.235v8.947H276.96Zm11.229,0a12.536,12.536,0,0,1,3.822-.555c2.883,0,4.89,1.644,4.89,5.274v.512c0,3.694-2.028,5.274-4.783,5.274a6.66,6.66,0,0,1-2.157-.321v5.467H288.19Zm6.94,4.719c0-2.776-1.217-3.608-3.16-3.608a6.238,6.238,0,0,0-2.008.256v7.11a5.5,5.5,0,0,0,2.05.363c1.858,0,3.118-.79,3.118-3.608Zm3.074.043c0-3.8,1.964-5.317,4.634-5.317s4.633,1.516,4.633,5.317v.448c0,3.78-1.964,5.3-4.633,5.3s-4.634-1.516-4.634-5.3Zm7.495,0c0-2.754-1.089-3.651-2.861-3.651s-2.862.9-2.862,3.651v.448c0,2.733,1.089,3.63,2.862,3.63s2.861-.9,2.861-3.63Zm3.2-8.327h1.772v3.2h4.035v1.666h-4.035v5.38c0,1.623.747,2.157,1.836,2.157a4.91,4.91,0,0,0,2.37-.6l.512,1.559a5.76,5.76,0,0,1-2.882.705c-2.05,0-3.608-1.025-3.608-3.844Zm16.233,9.224h-7.324v.107c0,2.093,1.238,3.075,3.245,3.075a9.074,9.074,0,0,0,3.332-.576l.512,1.559a10.4,10.4,0,0,1-3.844.683c-3.075,0-5.061-1.559-5.061-5.253v-.556c0-3.694,1.815-5.252,4.57-5.252,2.776,0,4.569,1.559,4.569,5.252Zm-7.324-1.366h5.531v-.128c0-2.135-1.111-3.053-2.776-3.053s-2.754.919-2.754,3.053Zm9.054-4.292a14.7,14.7,0,0,1,4.249-.555c2.562,0,4.463,1.153,4.463,4.591v6.277h-1.751v-6.384c0-2.328-1.132-2.819-2.818-2.819a7.91,7.91,0,0,0-2.37.256v8.947h-1.772Zm10.482-3.566h1.773v3.2h4.035v1.666h-4.035v5.38c0,1.623.747,2.157,1.836,2.157a4.908,4.908,0,0,0,2.37-.6l.512,1.559a5.757,5.757,0,0,1-2.882.705c-2.05,0-3.609-1.025-3.609-3.844Zm8.775-1.175a1.121,1.121,0,1,1-1.132,1.132A1.126,1.126,0,0,1,346.119,374.915Zm-.875,4.377h1.75v10.677h-1.75Zm11.892,10.314a14.77,14.77,0,0,1-4.377.555c-2.306,0-4.335-1.025-4.335-3.4v-.213c0-1.986,1.922-3.032,4.89-3.139.683-.022,1.366-.043,2.05-.086v-.6c0-1.495-1.046-1.964-2.691-1.964a8.326,8.326,0,0,0-3.246.662q-.255-.8-.512-1.6a10.839,10.839,0,0,1,3.865-.726c2.477,0,4.356.982,4.356,3.844Zm-1.772-4.826c-3.032.086-5.168.128-5.168,1.772v.213c0,1.26,1.089,1.73,2.584,1.73a9.273,9.273,0,0,0,2.584-.256Zm3.756-9.758h1.773v11.616c0,1.409.406,1.814,1.025,1.814a1.8,1.8,0,0,0,.854-.192l.512,1.559a4,4,0,0,1-1.58.3c-1.451,0-2.583-.875-2.583-3.48Z" transform="translate(-60.39 -58.033)" fill="#00b7f1"/>
    <g id="Group_4621" data-name="Group 4621" transform="translate(74.534 260.66)">
      <path id="Path_4311" data-name="Path 4311" d="M205.976,266.57c9.2,0,12.8,4.248,12.8,9.7a7.868,7.868,0,0,1-4.521,7.353,8.494,8.494,0,0,1,5.611,8.279c0,5.828-3.7,10.076-13.182,10.076H193.34v-35.4ZM198.95,271.8v9.641h7.026c5.338,0,7.189-2.179,7.189-4.793,0-2.832-1.852-4.848-7.189-4.848Zm0,14.488v10.458h7.734c5.665,0,7.571-2.07,7.571-5.229,0-3-1.906-5.229-7.571-5.229Zm26.147-22.44h5.392v29.14c0,3.322.98,4.3,2.342,4.3a3.652,3.652,0,0,0,1.906-.436l1.579,4.793a11.1,11.1,0,0,1-4.194.762c-3.975,0-7.026-2.4-7.026-9.422ZM262.57,301.1a41.667,41.667,0,0,1-11.329,1.416c-6.7,0-11.6-3.322-11.6-11.819V274.74h5.392v16.34c0,5.065,2.614,6.318,6.59,6.318a21.24,21.24,0,0,0,5.5-.491V274.74h5.446Zm29.6-10.676H273.7v.218c0,4.412,2.941,6.754,7.734,6.754a25.341,25.341,0,0,0,8.605-1.362l1.58,4.848a29.562,29.562,0,0,1-10.185,1.634c-8.17,0-13.29-4.03-13.29-13.616v-1.144c0-9.532,4.684-13.563,12.037-13.563,7.3,0,11.982,4.031,11.982,13.563Zm-18.464-4.14H286.61v-.272c0-4.575-2.506-6.7-6.427-6.7s-6.482,2.124-6.482,6.7Zm35.557,1.961v13.725h-5.664V288.357L290.032,266.57H296.4l10.022,16.558,9.967-16.558h6.373Zm10.191-.326c0-9.75,5.175-13.726,12.255-13.726,7.026,0,12.255,3.976,12.255,13.726v.871c0,9.749-5.229,13.726-12.255,13.726-7.08,0-12.255-3.976-12.255-13.726Zm19.009,0c0-6.536-2.505-8.606-6.754-8.606-4.3,0-6.808,2.07-6.808,8.606v.871c0,6.536,2.506,8.606,6.808,8.606,4.249,0,6.754-2.071,6.754-8.606Zm10.851-12.309a40.1,40.1,0,0,1,11.274-1.417c6.7,0,11.656,3.323,11.656,11.819v15.959h-5.393v-16.34c0-5.065-2.614-6.318-6.59-6.318a22.528,22.528,0,0,0-5.555.49v22.168h-5.392Zm50.836,25.49a38.044,38.044,0,0,1-10.349,1.416c-7.462,0-12.582-4.411-12.582-13.616v-1.09c0-9.423,5.392-13.617,12.745-13.617a12.791,12.791,0,0,1,4.793.817V263.847h5.392Zm-17.484-12.2c0,6.645,2.778,8.5,7.3,8.5a16.554,16.554,0,0,0,4.793-.545V280.241a9.66,9.66,0,0,0-4.412-.926c-4.521,0-7.68,1.743-7.68,8.5Zm46.956,1.525H411.154v.218c0,4.412,2.941,6.754,7.734,6.754a25.34,25.34,0,0,0,8.605-1.362l1.58,4.848a29.563,29.563,0,0,1-10.185,1.634c-8.17,0-13.29-4.03-13.29-13.616v-1.144c0-9.532,4.685-13.563,12.038-13.563,7.3,0,11.982,4.031,11.982,13.563Zm-18.341-4.14h12.908v-.272c0-4.575-2.505-6.7-6.427-6.7s-6.481,2.124-6.481,6.7Zm23.973-10.675a30.25,30.25,0,0,1,9.15-1.362,24.528,24.528,0,0,1,6.155.708l-1.634,4.956a14.527,14.527,0,0,0-4.194-.544,16.37,16.37,0,0,0-4.084.436v22.168h-5.392Z" transform="translate(-134.924 -262.28)" fill="#00b7f1"/>
      <path id="Path_4312" data-name="Path 4312" d="M96.834,260.66a6.908,6.908,0,1,0,6.908,6.908A6.908,6.908,0,0,0,96.834,260.66Zm0,44.6a6.908,6.908,0,1,0-6.908-6.908A6.908,6.908,0,0,0,96.834,305.26Zm1.46-22.3a1.686,1.686,0,0,0,.977,1.53h0l10.015,4.723h0a6.908,6.908,0,1,0,0-12.5h0L99.27,281.43h0A1.686,1.686,0,0,0,98.293,282.96Zm-2.92,0a1.686,1.686,0,0,0-.976-1.53h0l-10.014-4.723h0a6.908,6.908,0,1,0,0,12.505h0L94.4,284.49h0A1.686,1.686,0,0,0,95.374,282.96Z" transform="translate(-74.534 -260.66)" fill="#00b7f1"/>
    </g>
  </g>
</svg>
