<?xml version="1.0" encoding="UTF-8" standalone="no"?>
<!-- Created with Inkscape (http://www.inkscape.org/) -->

<svg
   xmlns:i="http://ns.adobe.com/AdobeIllustrator/10.0/"
   xmlns:dc="http://purl.org/dc/elements/1.1/"
   xmlns:cc="http://creativecommons.org/ns#"
   xmlns:rdf="http://www.w3.org/1999/02/22-rdf-syntax-ns#"
   xmlns:svg="http://www.w3.org/2000/svg"
   xmlns="http://www.w3.org/2000/svg"
   xmlns:sodipodi="http://sodipodi.sourceforge.net/DTD/sodipodi-0.dtd"
   xmlns:inkscape="http://www.inkscape.org/namespaces/inkscape"
   width="49.136158mm"
   height="46.893078mm"
   viewBox="0 0 174.1045 166.15658"
   id="svg6704"
   version="1.1"
   inkscape:version="0.91 r13725"
   sodipodi:docname="euroscipy_logo_from_poster.svg">
  <defs
     id="defs6706">
    <linearGradient
       id="linearGradient3755">
      <stop
         style="stop-color:#c6e2ff;stop-opacity:1;"
         offset="0"
         id="stop3757" />
      <stop
         style="stop-color:#003f87;stop-opacity:1;"
         offset="1"
         id="stop3759" />
    </linearGradient>
    <filter
       style="color-interpolation-filters:sRGB"
       inkscape:collect="always"
       id="filter4018">
      <feGaussianBlur
         inkscape:collect="always"
         stdDeviation="8.7513897"
         id="feGaussianBlur4020" />
    </filter>
  </defs>
  <sodipodi:namedview
     id="base"
     pagecolor="#ffffff"
     bordercolor="#666666"
     borderopacity="1.0"
     inkscape:pageopacity="0.0"
     inkscape:pageshadow="2"
     inkscape:zoom="4"
     inkscape:cx="107.44008"
     inkscape:cy="44.981331"
     inkscape:document-units="px"
     inkscape:current-layer="g3909"
     showgrid="false"
     fit-margin-top="0"
     fit-margin-left="0"
     fit-margin-right="0"
     fit-margin-bottom="0"
     inkscape:window-width="1470"
     inkscape:window-height="841"
     inkscape:window-x="58"
     inkscape:window-y="-8"
     inkscape:window-maximized="1" />
  <metadata
     id="metadata6709">
    <rdf:RDF>
      <cc:Work
         rdf:about="">
        <dc:format>image/svg+xml</dc:format>
        <dc:type
           rdf:resource="http://purl.org/dc/dcmitype/StillImage" />
        <dc:title></dc:title>
      </cc:Work>
    </rdf:RDF>
  </metadata>
  <g
     inkscape:label="Layer 1"
     inkscape:groupmode="layer"
     id="layer1"
     transform="translate(-265.46223,-735.58712)">
    <g
       id="g3909"
       transform="matrix(1.384638,0,0,1.384638,512.8528,892.66772)">
      <path
         inkscape:connector-curvature="0"
         style="clip-rule:evenodd;overflow:visible;fill:none;stroke:#000000;stroke-width:12.3454237;stroke-linecap:round;stroke-linejoin:round;stroke-miterlimit:4;stroke-dasharray:none;stroke-opacity:1;filter:url(#filter4018)"
         id="path9-03-7-9-8-9-9-4"
         d="m 64.945645,451.44373 c -22.55373,-40.78812 -35.39433,-87.66828 -35.39433,-137.53847 0,-157.32446 127.706545,-284.904207 285.220545,-284.904207 117.28498,0 217.95284,70.69857 261.78351,171.736207 l 14.4503,-6.85326 9.76469,-27.21304 10.2467,3.66094 -8.80178,24.33275 24.38986,8.57229 -3.67787,10.19075 -27.23598,-9.69927 -15.01863,7.043 c 12.43594,32.00094 19.3545,66.74731 19.3545,103.1327 0,157.33704 -127.72784,284.89507 -285.25418,284.89507 -94.62476,0 -178.48942,-46.04922 -230.366346,-116.90438 z"
         sodipodi:nodetypes="csscccccccccsscc"
         transform="matrix(0.17550076,0,0,0.17550076,-173.37599,-108.53495)" />
      <g
         style="overflow:visible;fill:#ffffff;fill-opacity:1;stroke:#ffffff;stroke-width:10.90668964;stroke-linecap:round;stroke-linejoin:round;stroke-miterlimit:4;stroke-dasharray:none;stroke-opacity:1"
         transform="matrix(0.19672942,0,0,0.20059256,-168.18972,-103.44063)"
         i:extraneous="self"
         id="g7-0-1-5-5-2-7">
        <path
           sodipodi:nodetypes="csscccccccccsscc"
           d="M 31.575,369.6 C 11.455,333.914 0,292.898 0,249.266 0,111.621 113.926,0 254.443,0 359.072,0 448.877,61.855 487.978,150.254 l 12.891,-5.996 8.711,-23.809 9.141,3.203 -7.852,21.289 21.758,7.5 -3.281,8.916 -24.297,-8.486 -13.398,6.162 c 11.094,27.998 17.266,58.398 17.266,90.232 0,137.656 -113.945,249.258 -254.473,249.258 -84.414,0 -159.229,-40.289 -205.508,-102.281 z"
           id="path9-03-7-9-8-9-9"
           style="clip-rule:evenodd;fill:#ffffff;fill-opacity:1;stroke:#ffffff;stroke-width:10.90668964;stroke-linecap:round;stroke-linejoin:round;stroke-miterlimit:4;stroke-dasharray:none;stroke-opacity:1"
           inkscape:connector-curvature="0" />
      </g>
      <g
         style="overflow:visible;fill:#005db8;fill-opacity:1;stroke:none"
         transform="matrix(0.19672942,0,0,0.20059256,-168.18972,-103.44524)"
         i:extraneous="self"
         id="g7-0-1-5-7">
        <path
           d="M 348.369,282.469 C 330.971,258.672 304.385,248.75 266.385,240.75 l -35.334,-8.332 -26.656,-11.432 c -14.01,-9.902 -25.947,-36.26 -22.559,-59.502 5.264,-36.006 38.896,-61.104 75.127,-56.045 18.094,2.559 33.438,12.139 43.555,25.625 l 40.117,52.705 c 22.93,29.531 48.711,38.32 76.758,24.375 l 14.141,-6.016 c 1.133,-0.527 2.461,-0.576 3.75,-0.107 1.055,0.41 1.914,1.162 2.422,2.051 l 2.813,4.238 c 0.781,1.279 1.953,2.314 3.477,2.891 2.578,0.977 5.352,0.391 7.305,-1.289 l 32.578,-30.723 c 5.703,-4.883 4.023,-9.365 4.023,-9.365 l -7.852,-17.881 c 0,0 -2.148,-4.287 -9.57,-3.301 l -43.672,4.014 c -2.539,0.361 -4.805,2.051 -5.781,4.629 -0.586,1.504 -0.625,3.076 -0.195,4.502 l 1.563,5.029 c 0.313,1.045 0.313,2.217 -0.117,3.291 -0.508,1.328 -1.523,2.266 -2.734,2.764 l -12.344,5.225 c -12.93,7.568 -27.617,2.734 -37.422,-9.258 l -11.211,-14.893 -31.914,-42.354 c -15.156,-20.098 -38.008,-34.434 -65,-38.203 -54.043,-7.568 -104.199,29.854 -112.051,83.584 -3.965,27.08 4.152,52.703 18.965,73.281 10.762,14.953 30.486,23.496 41.154,26.164 l 28,8 26.814,6.145 c 3.688,0.875 14.063,3.438 20.203,5.656 5.676,2.055 18.75,6.875 29.375,15.57 l 0,0 c 12.695,12.906 19.414,31.344 16.563,50.68 -4.805,32.969 -35.586,55.938 -68.75,51.289 -16.611,-2.305 -30.635,-11.109 -39.922,-23.438 l -38.32,-50.859 c -7.813,-10.367 -19.629,-17.773 -33.594,-19.766 -13.945,-1.953 -27.441,1.914 -37.9,9.75 L 31.575,369.6 C 11.455,333.914 0,292.898 0,249.266 0,111.621 113.926,0 254.443,0 359.072,0 448.877,61.855 487.978,150.254 l 12.891,-5.996 8.711,-23.809 9.141,3.203 -7.852,21.289 21.758,7.5 -3.281,8.916 -24.297,-8.486 -13.398,6.162 c 11.094,27.998 17.266,58.398 17.266,90.232 0,137.656 -113.945,249.258 -254.473,249.258 -84.414,0 -159.229,-40.289 -205.508,-102.281 l 82.578,-61.898 c 3.779,-2.578 8.467,-3.75 13.33,-3.086 5.176,0.742 9.58,3.461 12.471,7.305 l 40.537,54.477 c 14.277,17.516 35.02,29.922 59.307,33.336 51.094,7.148 98.516,-28.242 105.938,-79.063 3.436,-23.649 -2.345,-46.485 -14.728,-64.844"
           id="path9-03-7-9-9"
           style="clip-rule:evenodd;fill:#005db8;fill-opacity:1;fill-rule:evenodd;stroke:none"
           inkscape:connector-curvature="0" />
      </g>
      <path
         inkscape:connector-curvature="0"
         id="path2448-7-2"
         d="m -121.78212,-6.760212 c -0.0209,-0.0363 0.26616,-0.99711 0.63794,-2.135062 0.37179,-1.13795 0.65588,-2.127192 0.63131,-2.198314 -0.0246,-0.07112 -0.82526,-0.692276 -1.77931,-1.38035 -0.95405,-0.688061 -1.75064,-1.299064 -1.77021,-1.357783 -0.0277,-0.08305 0.46985,-0.106743 2.24229,-0.106743 l 2.27787,0 0.0841,-0.193967 c 0.0463,-0.106685 0.37054,-1.077194 0.72061,-2.156693 0.35008,-1.079493 0.67635,-1.949438 0.72504,-1.933203 0.0487,0.01623 0.39983,0.977039 0.78032,2.135128 l 0.69178,2.10563 2.2386,0.02304 c 1.23124,0.01269 2.27085,0.0553 2.31027,0.09472 0.0394,0.03942 -0.74489,0.663942 -1.74291,1.38784 -0.998,0.723901 -1.81456,1.37498 -1.81456,1.446845 0,0.07186 0.29801,1.056 0.66226,2.186978 0.36424,1.130974 0.63816,2.080424 0.6087,2.109874 -0.0295,0.0295 -0.8415,-0.519 -1.80452,-1.21879 -0.96303,-0.699781 -1.81478,-1.289257 -1.89278,-1.30994 -0.0855,-0.02266 -0.82168,0.456165 -1.85348,1.20553 -1.94399,1.41186 -1.90214,1.38411 -1.95332,1.29526 z m -22.47424,-6.642973 c 0,-0.03749 0.30866,-1.017041 0.68592,-2.176762 0.60566,-1.861858 0.67103,-2.123712 0.55871,-2.237893 -0.07,-0.07112 -0.8709,-0.672426 -1.77987,-1.336231 -0.90897,-0.663802 -1.66794,-1.255408 -1.6866,-1.314673 -0.0266,-0.08431 0.45304,-0.107762 2.2041,-0.107762 1.68805,0 2.25875,-0.02648 2.32228,-0.107761 0.0463,-0.05927 0.38199,-1.029112 0.74592,-2.155209 0.36393,-1.126097 0.69794,-2.047448 0.74225,-2.047448 0.0443,0 0.37916,0.921351 0.74411,2.047448 0.36494,1.126097 0.70081,2.09594 0.74637,2.155209 0.0625,0.08131 0.6321,0.107761 2.32088,0.107761 1.75129,0 2.23058,0.02344 2.20368,0.107762 -0.0189,0.05926 -0.77845,0.652096 -1.68789,1.317399 -0.90943,0.665304 -1.71018,1.26661 -1.77943,1.336227 -0.11048,0.111064 -0.0418,0.385147 0.55999,2.235171 0.71193,2.188559 0.72789,2.246168 0.62126,2.243052 -0.0356,-0.0011 -0.85993,-0.582093 -1.83192,-1.291238 -0.97201,-0.709137 -1.82547,-1.289348 -1.89659,-1.289348 -0.0711,0 -0.92458,0.580211 -1.89658,1.289348 -0.972,0.709145 -1.79637,1.290206 -1.83193,1.291238 -0.0356,0.0011 -0.0647,-0.02879 -0.0647,-0.06629 z m 43.53522,-0.0269 c 0,-0.05229 0.29095,-0.989551 0.64656,-2.082793 0.355603,-1.093232 0.646566,-2.057081 0.646566,-2.141867 0,-0.101466 -0.602866,-0.590239 -1.764046,-1.430193 -0.97022,-0.701829 -1.76549,-1.323893 -1.76726,-1.382377 -0.002,-0.08112 0.53335,-0.111778 2.25973,-0.129314 l 2.26296,-0.02298 0.695617,-2.106897 c 0.382591,-1.158799 0.73684,-2.12065 0.787261,-2.137456 0.05196,-0.01732 0.379766,0.857606 0.757075,2.020695 0.36599,1.128184 0.705075,2.099735 0.753513,2.159003 0.06634,0.08118 0.640104,0.107761 2.326104,0.107761 1.740773,0 2.230141,0.02372 2.202447,0.106743 -0.01957,0.05872 -0.815447,0.669717 -1.768626,1.357776 -0.95318,0.688075 -1.754657,1.301631 -1.781052,1.363458 -0.02639,0.06183 0.239909,0.99288 0.591804,2.069 0.707832,2.164596 0.745564,2.311791 0.584033,2.278939 -0.06081,-0.01236 -0.887314,-0.58854 -1.836668,-1.280387 -1.077943,-0.785559 -1.780999,-1.243365 -1.872242,-1.219183 -0.08038,0.0213 -0.928416,0.607163 -1.884527,1.301935 -0.956111,0.694772 -1.761079,1.263218 -1.788829,1.263218 -0.0277,0 -0.0504,-0.04278 -0.0504,-0.09508 z m -57.93201,-14.482506 c 0,-0.05202 0.29418,-1.004889 0.65373,-2.117487 0.35954,-1.11259 0.63386,-2.074627 0.60961,-2.137859 -0.0243,-0.06323 -0.80182,-0.665962 -1.72789,-1.339413 -0.92607,-0.67345 -1.72885,-1.278795 -1.78398,-1.345206 -0.0855,-0.103 0.2305,-0.12075 2.14978,-0.12075 2.23936,0 2.25056,-7.02e-4 2.37313,-0.193967 0.0677,-0.10668 0.38312,-1.007299 0.70086,-2.001368 0.71269,-2.229767 0.71973,-2.248323 0.81451,-2.150671 0.042,0.04328 0.37267,0.989203 0.73479,2.102043 0.36212,1.11284 0.69959,2.072987 0.74995,2.133658 0.07,0.08441 0.61539,0.110305 2.32239,0.110305 1.22698,0 2.23087,0.02973 2.23087,0.06607 0,0.03634 -0.79852,0.642933 -1.77449,1.347997 -0.97597,0.705062 -1.79338,1.33115 -1.81646,1.391305 -0.0231,0.06015 0.25172,1.008222 0.61068,2.106816 0.35895,1.098595 0.65264,2.056873 0.65264,2.1295 0,0.07978 -0.0494,0.113119 -0.12466,0.08422 -0.0686,-0.02631 -0.9046,-0.616222 -1.85786,-1.310905 l -1.7332,-1.263063 -0.32183,0.212979 c -0.17702,0.117143 -0.9943,0.702896 -1.81619,1.301682 -0.82191,0.598786 -1.52857,1.088696 -1.57038,1.088696 -0.0418,0 -0.076,-0.04256 -0.076,-0.09458 z m 72.356399,-0.02543 c 0.09614,-0.250518 1.351742,-4.166949 1.351742,-4.21629 0,-0.02847 -0.814673,-0.643945 -1.810378,-1.367724 -0.995702,-0.723787 -1.810376,-1.346416 -1.810376,-1.38362 0,-0.03721 1.003882,-0.06765 2.23086,-0.06765 1.682296,0 2.25157,-0.0265 2.315099,-0.107759 0.04631,-0.05927 0.381347,-1.027153 0.744494,-2.150848 0.363163,-1.123701 0.696597,-2.065533 0.740981,-2.092962 0.04438,-0.02743 0.395105,0.910368 0.779364,2.083994 0.384277,1.173628 0.745071,2.163363 0.801775,2.199402 0.05669,0.03605 1.08261,0.06613 2.279841,0.06685 1.31336,8.78e-4 2.176755,0.03374 2.176755,0.08306 0,0.04496 -0.793809,0.655955 -1.764028,1.357781 -1.182526,0.855391 -1.765118,1.328706 -1.767275,1.435784 -0.0018,0.08785 0.287714,1.054205 0.643333,2.147445 0.355598,1.093242 0.646563,2.0203 0.646563,2.060126 0,0.03983 -0.03636,0.07242 -0.08076,0.07242 -0.04442,0 -0.88349,-0.581906 -1.864627,-1.293123 -0.981137,-0.711221 -1.807937,-1.292277 -1.837386,-1.291238 -0.02941,0.0011 -0.848776,0.582094 -1.820767,1.291238 -1.669171,1.217778 -2.063014,1.45408 -1.955186,1.173113 z M -163.9295,-50.278558 c -0.0255,-0.0255 0.26231,-1.000337 0.63957,-2.166303 0.62695,-1.937555 0.67417,-2.131715 0.54891,-2.256973 -0.0754,-0.07538 -0.88294,-0.681383 -1.7946,-1.346691 -0.91166,-0.665301 -1.65828,-1.248432 -1.65916,-1.295845 -0.001,-0.05427 0.84245,-0.102178 2.27681,-0.129311 l 2.27841,-0.04311 0.69578,-2.112104 c 0.38268,-1.161657 0.73457,-2.101558 0.78199,-2.088664 0.0474,0.0129 0.39655,0.963341 0.77587,2.112106 l 0.68967,2.088662 2.2386,0.02304 c 1.23123,0.01269 2.27233,0.05678 2.31358,0.09802 0.0425,0.0425 -0.71254,0.647426 -1.74291,1.396403 -1.07826,0.78379 -1.81788,1.378413 -1.81788,1.461493 0,0.07704 0.29095,1.034533 0.64657,2.127778 0.35561,1.093233 0.64656,2.034642 0.64656,2.092008 0,0.169157 -0.14281,0.07842 -1.96811,-1.250323 -0.98933,-0.720187 -1.79293,-1.247755 -1.86088,-1.221679 -0.0658,0.02525 -0.89943,0.61109 -1.85253,1.301884 -0.95311,0.69079 -1.74573,1.255985 -1.7614,1.255985 -0.0156,0 -0.0493,-0.02087 -0.0748,-0.04638 z m 82.950071,-0.07646 c 0,-0.06756 0.290963,-1.013294 0.646564,-2.101641 0.355618,-1.088347 0.645543,-2.032011 0.644281,-2.097034 -0.0018,-0.06502 -0.804269,-0.700125 -1.784476,-1.411342 -0.980222,-0.711222 -1.784158,-1.331919 -1.786561,-1.379334 -0.0026,-0.05438 0.837734,-0.102124 2.276473,-0.129309 l 2.280789,-0.04311 0.633505,-1.939691 c 0.782893,-2.397082 0.789139,-2.412542 0.903181,-2.236404 0.04784,0.07388 0.384329,1.043724 0.747772,2.155209 l 0.660797,2.020886 2.281159,0.04311 c 1.375639,0.02599 2.281159,0.07607 2.281159,0.126148 0,0.04568 -0.80393,0.66638 -1.78654,1.379336 -0.9826,0.712956 -1.787568,1.350675 -1.788814,1.417151 -0.0018,0.06647 0.288662,1.006381 0.644279,2.088687 0.620432,1.888313 0.711271,2.230173 0.592631,2.230173 -0.02964,0 -0.834629,-0.570669 -1.788825,-1.268162 -0.95418,-0.697487 -1.812484,-1.268163 -1.907307,-1.268163 -0.09482,0 -0.953127,0.570676 -1.907325,1.268163 -0.954199,0.697493 -1.759167,1.268162 -1.788809,1.268162 -0.02966,0 -0.05393,-0.05527 -0.05393,-0.122835 z M -158.65315,-70.06848 c 0,-0.05202 0.29418,-1.004886 0.65373,-2.117484 0.35954,-1.11259 0.63386,-2.074629 0.60961,-2.137857 -0.0243,-0.06323 -0.80182,-0.665966 -1.72789,-1.339418 -0.92607,-0.673451 -1.72885,-1.278794 -1.78398,-1.345205 -0.0855,-0.103 0.22927,-0.120748 2.14121,-0.120748 1.86638,0 2.259,-0.02119 2.34654,-0.126664 0.0578,-0.06967 0.40348,-1.049209 0.76814,-2.176762 0.36466,-1.127549 0.70035,-2.044063 0.74597,-2.036692 0.0456,0.0074 0.37834,0.919029 0.73936,2.025895 0.36103,1.106876 0.71988,2.080384 0.79743,2.163357 0.12719,0.136077 0.35722,0.150866 2.34649,0.150866 1.29131,0 2.19359,0.03258 2.17677,0.07859 -0.0158,0.04322 -0.81741,0.649435 -1.78134,1.34713 -0.96394,0.697701 -1.77164,1.318151 -1.79491,1.378783 -0.0233,0.06063 0.25139,1.009089 0.61035,2.107683 0.35895,1.098596 0.65264,2.056867 0.65264,2.129498 0,0.07978 -0.0494,0.113119 -0.12466,0.08422 -0.0686,-0.02631 -0.9046,-0.616213 -1.85786,-1.310901 l -1.7332,-1.263067 -0.32183,0.212981 c -0.17702,0.117139 -0.9943,0.702894 -1.81619,1.301684 -0.82191,0.598782 -1.52857,1.088696 -1.57038,1.088696 -0.0418,0 -0.076,-0.04256 -0.076,-0.09458 z m 72.033339,-0.09939 c 0.03354,-0.106682 0.346507,-1.072533 0.695492,-2.146336 0.348948,-1.073806 0.63447,-1.972565 0.63447,-1.997251 0,-0.02469 -0.814656,-0.636843 -1.810378,-1.360354 -0.995705,-0.723507 -1.810362,-1.3474 -1.810362,-1.386426 0,-0.03903 0.981823,-0.07096 2.181827,-0.07096 1.617029,0 2.216277,-0.02789 2.314906,-0.107761 0.07317,-0.05927 0.430521,-1.027306 0.79409,-2.151199 0.363568,-1.123886 0.697456,-2.065951 0.741982,-2.093466 0.04452,-0.02751 0.394419,0.917567 0.777556,2.100188 0.44407,1.370697 0.744789,2.168699 0.829538,2.201221 0.07311,0.02806 1.09962,0.05102 2.281108,0.05102 1.246247,0 2.148147,0.03322 2.148147,0.07911 0,0.04352 -0.794387,0.654516 -1.765329,1.357784 -1.21794,0.882174 -1.765941,1.329457 -1.767275,1.442469 -0.0018,0.09009 0.289017,1.065077 0.644632,2.166625 0.355617,1.101548 0.646564,2.02678 0.646564,2.056058 0,0.150026 -0.319359,-0.05299 -1.955589,-1.243178 -0.980258,-0.713028 -1.826365,-1.279503 -1.880245,-1.258824 -0.05388,0.02067 -0.876135,0.604065 -1.827207,1.296418 -0.951074,0.692354 -1.775524,1.258826 -1.83207,1.258826 -0.06725,0 -0.08173,-0.06714 -0.04186,-0.193969 z m -57.635149,-14.258257 c 8.7e-4,-0.04064 0.30924,-1.022619 0.68549,-2.182182 0.42577,-1.312165 0.65486,-2.143528 0.60668,-2.20158 -0.0426,-0.0513 -0.85402,-0.654316 -1.80321,-1.340029 -0.94917,-0.685718 -1.72713,-1.295249 -1.72878,-1.354519 -0.002,-0.08351 0.49905,-0.107761 2.22787,-0.107761 1.68115,0 2.25214,-0.02655 2.31724,-0.107761 0.0475,-0.05927 0.38322,-1.02911 0.74603,-2.155207 0.36281,-1.126099 0.69611,-2.047448 0.74067,-2.047448 0.0446,0 0.37821,0.921349 0.74142,2.047448 0.36322,1.126097 0.69884,2.095939 0.74581,2.155207 0.0644,0.08123 0.63461,0.107761 2.31627,0.107761 1.72882,0 2.23019,0.02425 2.22787,0.107761 -0.002,0.05927 -0.77961,0.668801 -1.72879,1.354519 -0.94919,0.685713 -1.76039,1.288446 -1.80269,1.339406 -0.0475,0.05723 0.18467,0.899043 0.60718,2.201578 0.37623,1.159913 0.68447,2.142169 0.68497,2.182807 0.002,0.135691 -0.2157,-0.0057 -1.95517,-1.27199 -0.95108,-0.692355 -1.77568,-1.258828 -1.83245,-1.258828 -0.0568,0 -0.88233,0.566046 -1.83461,1.257877 -1.73818,1.262784 -1.96439,1.409564 -1.9618,1.272941 z m 43.53382,-0.04123 c 0,-0.05317 0.29095,-0.987132 0.64656,-2.075477 0.355603,-1.088349 0.646566,-2.048984 0.646566,-2.134742 0,-0.103807 -0.606546,-0.59588 -1.814576,-1.472113 -0.99802,-0.723902 -1.78231,-1.348434 -1.74291,-1.387848 0.0394,-0.03942 1.07905,-0.08204 2.31027,-0.09471 l 2.2386,-0.02304 0.697582,-2.10756 c 0.383663,-1.159157 0.735787,-2.12029 0.782451,-2.135852 0.04668,-0.01557 0.403777,0.942538 0.793529,2.129109 l 0.708637,2.157403 2.287705,0 c 1.790932,0 2.280281,0.0234 2.253517,0.107762 -0.01881,0.05927 -0.778153,0.650874 -1.687459,1.314676 -0.909303,0.663807 -1.714588,1.26926 -1.789527,1.345457 -0.124377,0.126473 -0.07901,0.314222 0.520674,2.155209 0.361288,1.10917 0.672712,2.06392 0.692054,2.121669 0.09858,0.294622 -0.260074,0.08605 -1.886896,-1.097294 -0.977083,-0.710727 -1.825191,-1.291377 -1.884721,-1.290338 -0.05951,0.0011 -0.903477,0.582094 -1.875471,1.291238 -0.972011,0.709143 -1.796375,1.290201 -1.831925,1.291238 -0.0356,0.0011 -0.0647,-0.04161 -0.0647,-0.09478 z m -21.06344,-5.225636 c -0.022,-0.03615 0.24568,-0.938583 0.59494,-2.005411 0.34927,-1.066832 0.65736,-2.039959 0.68463,-2.162506 0.0461,-0.207044 -0.0788,-0.315761 -1.76451,-1.535658 -0.99774,-0.722059 -1.81409,-1.349176 -1.81409,-1.393588 0,-0.04812 0.90162,-0.08075 2.23087,-0.08075 1.68067,0 2.25238,-0.02657 2.31813,-0.107761 0.048,-0.05927 0.38906,-1.030155 0.75792,-2.157524 0.38012,-1.161749 0.71041,-2.036519 0.76241,-2.019189 0.0504,0.0168 0.40272,0.97801 0.78282,2.135975 l 0.69109,2.105393 2.26296,0.02299 c 1.7271,0.01753 2.26195,0.04816 2.25866,0.129313 -0.002,0.05848 -0.78235,0.666636 -1.73326,1.351458 -0.95093,0.684821 -1.74992,1.29977 -1.77555,1.36655 -0.0256,0.06678 0.25311,1.048987 0.61939,2.182679 0.3663,1.133695 0.65202,2.103189 0.63494,2.154425 -0.0171,0.05124 -0.83709,-0.492329 -1.82227,-1.207942 -0.98516,-0.71561 -1.85133,-1.301111 -1.92481,-1.301111 -0.0735,0 -0.89242,0.552812 -1.81985,1.228467 -1.93848,1.412218 -1.8915,1.38095 -1.94442,1.294196 z"
         style="overflow:visible;fill:#ffffff;fill-opacity:1" />
    </g>
  </g>
</svg>
