<?xml version="1.0" encoding="UTF-8"?>
<svg id="Layer_1" xmlns="http://www.w3.org/2000/svg" version="1.1" viewBox="0 0 555 285">
  <!-- Generator: Adobe Illustrator 30.4.0, SVG Export Plug-In . SVG Version: 2.1.4 Build 226)  -->
  <defs>
    <style>
      .st0 {
        fill: #5a2d82;
      }

      .st1 {
        fill: #231f20;
      }

      .st2 {
        fill: #fcb518;
      }
    </style>
  </defs>
  <path class="st1" d="M263.41,55.08c5.78,6.83,8.58,17.15,8.58,30.8v58.8h-29.92v-57.4c0-6.65-1.22-11.37-3.67-14.53-2.45-2.97-6.3-4.55-11.37-4.55-6.3,0-11.2,1.92-15.05,5.95-3.85,4.02-5.6,9.27-5.6,15.93v54.6h-29.92V47.38h29.05v13.82c3.5-5.25,7.88-9.27,13.47-12.07,5.43-2.8,11.72-4.2,18.55-4.2,11.55,0,20.3,3.5,25.9,10.15"/>
  <path class="st1" d="M304.88,143.27c-7.53-2.1-14-5.08-19.42-8.75l7.88-20.65c5.25,3.5,11.2,6.3,17.5,8.4,6.3,1.92,12.77,2.97,19.25,2.97,4.55,0,8.23-.7,10.85-2.27,2.62-1.57,3.85-3.67,3.85-6.3,0-2.45-.87-4.2-2.62-5.6-1.75-1.4-5.08-2.45-9.97-3.5l-15.93-3.5c-9.45-2.1-16.28-5.43-20.82-9.8-4.37-4.37-6.65-10.5-6.65-18.2,0-6.13,1.75-11.37,5.25-16.1,3.5-4.55,8.4-8.23,14.88-10.85,6.48-2.62,13.65-4.02,21.87-4.02,7,0,13.82,1.05,20.47,3.15,6.65,2.1,12.6,5.08,17.85,8.93l-7.88,19.77c-10.32-7.18-20.47-10.67-30.62-10.67-4.55,0-8.23.87-10.85,2.45-2.62,1.57-4.02,3.85-4.02,6.83,0,2.1.87,3.85,2.45,4.9,1.57,1.22,4.37,2.27,8.4,3.32l16.45,3.85c9.97,2.27,17.15,5.6,21.7,10.15,4.55,4.55,6.83,10.67,6.83,18.55,0,9.45-3.67,16.8-11.2,22.05-7.53,5.43-17.85,8.05-30.8,8.05-8.93,0-17.15-1.05-24.68-3.15"/>
  <path class="st1" d="M483.91,143.27c-7.53-2.1-14-5.08-19.42-8.75l7.88-20.65c5.25,3.5,11.2,6.3,17.5,8.4,6.3,1.92,12.77,2.97,19.25,2.97,4.55,0,8.23-.7,10.85-2.27,2.62-1.57,3.85-3.67,3.85-6.3,0-2.45-.87-4.2-2.62-5.6-1.75-1.4-5.08-2.45-9.97-3.5l-15.93-3.5c-9.45-2.1-16.28-5.43-20.82-9.8-4.37-4.37-6.65-10.5-6.65-18.2,0-6.13,1.75-11.37,5.25-16.1,3.5-4.55,8.4-8.23,14.88-10.85,6.48-2.62,13.65-4.02,21.87-4.02,7,0,13.82,1.05,20.47,3.15,6.65,2.1,12.6,5.08,17.85,8.93l-7.88,19.77c-10.32-7.18-20.47-10.67-30.62-10.67-4.55,0-8.23.87-10.85,2.45-2.62,1.57-4.02,3.85-4.02,6.83,0,2.1.87,3.85,2.45,4.9,1.57,1.22,4.37,2.27,8.4,3.32l16.45,3.85c9.97,2.27,17.15,5.6,21.7,10.15,4.55,4.55,6.83,10.67,6.83,18.55,0,9.45-3.67,16.8-11.2,22.05-7.53,5.43-17.85,8.05-30.8,8.05-8.93,0-17.15-1.05-24.68-3.15"/>
  <polygon class="st2" points="63.91 4.5 4.41 144.67 45.01 144.67 102.41 4.5 63.91 4.5"/>
  <polygon class="st1" points="109.41 9.05 90.16 56.13 126.39 144.67 167.16 144.67 109.41 9.05"/>
  <polygon class="st1" points="466.97 47.38 420.24 156.19 390.67 156.19 406.78 118.68 373.8 47.38 403.37 47.38 421.6 84.17 437.4 47.38 466.97 47.38"/>
  <g>
    <path class="st0" d="M184.47,205.49c0-2.6-1.3-4.57-7.08-4.57s-7.08,1.95-7.08,4.57v7.08c0,2.15.74,4.28,2.8,6.06l19.54,16.73c2.8,2.33,4.47,5.22,4.47,8.18v10.61c0,6.32-7.44,9.86-19.73,9.86-13.59,0-20.1-3.06-20.1-9.86v-9.21h12.29v8.83c0,3.17,2.43,5.02,7.82,5.02,5.02,0,7.45-1.86,7.45-5.02v-9.4c0-2.33-.94-4.1-3.54-6.43l-18.08-15.71c-3.34-2.89-5.22-5.12-5.22-8.56v-8.09c0-6.61,6.88-9.86,19.37-9.86,13.79,0,19.37,3.26,19.37,9.4v8.56h-12.28v-8.2h-.01v.02Z"/>
    <path class="st0" d="M302.95,206.91c0-6.6,5.02-11.36,21.58-11.36s21.58,4.75,21.58,11.36v45.6c0,6.61-5.02,11.36-21.58,11.36s-21.61-4.75-21.61-11.36v-45.6h.02ZM315.23,252.34c0,3.72,1.49,6.32,9.31,6.32s9.31-2.6,9.31-6.32v-45.23c0-3.72-1.49-6.32-9.31-6.32s-9.31,2.6-9.31,6.32v45.23Z"/>
    <path class="st0" d="M352.92,196.13h19.55c15.83,0,20.48,2.6,20.48,10.25v16.48c-.01,7.62-4.66,10.25-20.49,10.25h-7.26v30.25h-12.29v-67.21h.01ZM371.17,227.86c5.58,0,9.48-.74,9.48-4.19v-18.15c0-3.45-3.9-4.19-9.48-4.19h-5.96v26.52h5.96Z"/>
    <path class="st0" d="M423.63,205.34c0-2.61-1.3-4.57-7.08-4.57s-7.09,1.95-7.09,4.57v7.08c0,2.15.74,4.28,2.8,6.05l19.54,16.74c2.8,2.33,4.46,5.2,4.46,8.18v10.61c0,6.32-7.44,9.86-19.73,9.86-13.59,0-20.11-3.08-20.11-9.86v-9.2h12.29v8.85c0,3.17,2.43,5.02,7.82,5.02,5.02,0,7.44-1.86,7.44-5.02v-9.4c0-2.33-.92-4.1-3.54-6.43l-18.06-15.74c-3.34-2.89-5.22-5.12-5.22-8.55v-8.1c0-6.61,6.88-9.86,19.37-9.86,13.77,0,19.36,3.25,19.36,9.4v8.56h-12.29v-8.2h.05Z"/>
    <path class="st0" d="M514.31,205.34c0-2.6-1.31-4.55-7.08-4.55s-7.08,1.95-7.08,4.55v7.08c0,2.15.74,4.28,2.8,6.05l19.54,16.77c2.8,2.33,4.47,5.2,4.47,8.18v10.61c0,6.32-7.45,9.86-19.73,9.86-13.59,0-20.11-3.08-20.11-9.86v-9.21h12.29v8.85c-.01,3.17,2.41,5.02,7.82,5.02,5.01,0,7.44-1.86,7.44-5.02v-9.4c0-2.33-.94-4.1-3.54-6.43l-18.06-15.74c-3.34-2.89-5.22-5.12-5.22-8.56v-8.1c0-6.6,6.88-9.86,19.37-9.86,13.77,0,19.36,3.26,19.36,9.4v8.56h-12.28v-8.18h.01Z"/>
    <polygon class="st0" points="235.13 196.13 247.45 196.13 220.51 280.48 208.22 280.48 235.13 196.13"/>
    <polygon class="st0" points="215.73 248.53 199.09 196.28 211.39 196.28 221.88 229.22 215.73 248.53"/>
    <polygon class="st0" points="474.18 196.13 486.47 196.13 459.56 280.5 447.25 280.5 474.18 196.13"/>
    <polygon class="st0" points="454.82 248.38 438.18 196.13 450.47 196.13 460.97 229.07 454.82 248.38"/>
    <path class="st0" d="M295.37,263.33h.06v-56.94c0-7.62-4.65-10.25-20.48-10.25h-23.68v67.2h12.29v-61.99h10.11c5.58,0,9.48.74,9.48,4.19v57.79h12.23Z"/>
    <path class="st0" d="M531.71,204.41c0-4.49,3.64-7.81,7.96-7.81s7.9,3.31,7.9,7.81-3.63,7.84-7.9,7.84-7.96-3.31-7.96-7.84ZM539.67,210.96c3.54,0,6.32-2.77,6.32-6.54s-2.8-6.51-6.32-6.51-6.38,2.8-6.38,6.51,2.8,6.54,6.38,6.54ZM538.01,208.96h-1.37v-9.03h3.45c2.12,0,3.18.79,3.18,2.56,0,1.61-1.02,2.32-2.34,2.49l2.58,3.97h-1.53l-2.39-3.92h-1.57v3.92h0ZM539.65,203.89c1.16,0,2.19-.08,2.19-1.46,0-1.13-1.02-1.32-1.96-1.32h-1.87v2.8h1.64Z"/>
    <path class="st1" d="M30.46,221.8c0,4.19-.96,7.57-2.88,10.13-1.92,2.56-4.52,3.85-7.8,3.85s-5.98-1.06-7.9-3.18v13.27h-4.71v-38.16h4.31l.23,3.05c1.92-2.38,4.58-3.56,8-3.56s5.93,1.25,7.86,3.75c1.93,2.49,2.89,5.97,2.89,10.42v.43h0ZM25.75,221.27c0-3.11-.66-5.55-1.99-7.36-1.33-1.8-3.15-2.71-5.45-2.71-2.85,0-5,1.26-6.41,3.79v13.17c1.4,2.52,3.56,3.76,6.47,3.76,2.26,0,4.05-.9,5.38-2.69,1.33-1.79,2-4.45,2-7.99h0Z"/>
    <path class="st1" d="M49.89,235.27c-.27-.54-.49-1.52-.66-2.91-2.19,2.28-4.81,3.41-7.84,3.41-2.72,0-4.95-.77-6.68-2.3-1.75-1.53-2.61-3.48-2.61-5.84,0-2.86,1.09-5.1,3.28-6.68,2.18-1.59,5.25-2.38,9.2-2.38h4.58v-2.16c0-1.65-.49-2.96-1.47-3.94-.99-.97-2.43-1.46-4.35-1.46-1.67,0-3.09.43-4.22,1.27-1.13.84-1.7,1.88-1.7,3.08h-4.74c0-1.37.49-2.71,1.46-3.98.97-1.27,2.3-2.29,3.98-3.05,1.67-.74,3.51-1.12,5.51-1.12,3.18,0,5.67.79,7.46,2.38,1.8,1.59,2.73,3.78,2.81,6.56v12.68c0,2.53.33,4.54.97,6.04v.4h-4.97ZM42.08,231.68c1.47,0,2.88-.39,4.21-1.15,1.33-.76,2.29-1.76,2.88-2.98v-5.65h-3.69c-5.77,0-8.66,1.69-8.66,5.07,0,1.47.49,2.63,1.47,3.46.99.83,2.25,1.25,3.79,1.25h0Z"/>
    <path class="st1" d="M70.48,211.94c-.72-.11-1.49-.17-2.32-.17-3.09,0-5.18,1.32-6.3,3.95v19.57h-4.71v-27.55h4.58l.07,3.18c1.55-2.46,3.74-3.69,6.57-3.69.92,0,1.62.11,2.09.36v4.38h.01Z"/>
    <path class="st1" d="M83.07,201.05v6.67h5.14v3.64h-5.14v17.12c0,1.1.23,1.93.69,2.49.46.56,1.25.83,2.35.83.54,0,1.29-.1,2.25-.3v3.79c-1.25.34-2.45.5-3.62.5-2.1,0-3.69-.63-4.77-1.9-1.07-1.27-1.6-3.08-1.6-5.43v-17.09h-5.02v-3.64h5.02v-6.67h4.71Z"/>
    <path class="st1" d="M98.09,221.25c0-2.71.53-5.12,1.59-7.29,1.06-2.16,2.53-3.82,4.44-5,1.89-1.17,4.05-1.76,6.48-1.76,3.75,0,6.78,1.3,9.1,3.89,2.32,2.59,3.48,6.05,3.48,10.36v.33c0,2.68-.52,5.1-1.55,7.21-1.03,2.13-2.49,3.79-4.41,4.98-1.9,1.19-4.11,1.79-6.58,1.79-3.74,0-6.76-1.3-9.08-3.89-2.32-2.61-3.48-6.04-3.48-10.32v-.33h0ZM102.83,221.8c0,3.06.72,5.51,2.13,7.36,1.42,1.85,3.32,2.78,5.7,2.78s4.29-.94,5.71-2.82c1.4-1.88,2.12-4.51,2.12-7.89,0-3.02-.72-5.47-2.15-7.34-1.43-1.88-3.34-2.82-5.71-2.82s-4.21.93-5.63,2.78c-1.43,1.85-2.13,4.49-2.13,7.94h-.04Z"/>
    <path class="st1" d="M129.31,235.27v-23.92h-4.35v-3.64h4.35v-2.83c0-2.95.79-5.24,2.36-6.86,1.57-1.62,3.81-2.42,6.7-2.42,1.09,0,2.16.14,3.23.43l-.26,3.79c-.8-.16-1.65-.23-2.55-.23-1.53,0-2.71.44-3.54,1.35-.83.9-1.25,2.18-1.25,3.85v2.92h5.88v3.64h-5.88v23.92h-4.71Z"/>
  </g>
  <path class="st1" d="M7.17,156.23h379.69l.69-1.61H7.17v1.61ZM424.75,154.63l-.69,1.61h121.56v-1.61h-120.87Z"/>
</svg>