<?xml version="1.0" encoding="utf-8"?>
<!-- Generator: Adobe Illustrator 15.0.2, SVG Export Plug-In . SVG Version: 6.00 Build 0)  -->
<!DOCTYPE svg PUBLIC "-//W3C//DTD SVG 1.0//EN" "http://www.w3.org/TR/2001/REC-SVG-20010904/DTD/svg10.dtd">
<svg version="1.0" xmlns="http://www.w3.org/2000/svg" xmlns:xlink="http://www.w3.org/1999/xlink" x="0px" y="0px"
	 width="342.991px" height="170.077px" viewBox="0 0 342.991 170.077" enable-background="new 0 0 342.991 170.077"
	 xml:space="preserve">
<g id="Ebene_2">
</g>
<g id="Ebene_1">
	<g>
		<defs>
			<rect id="SVGID_1_" y="-0.001" width="342.991" height="170.077"/>
		</defs>
		<clipPath id="SVGID_2_">
			<use xlink:href="#SVGID_1_"  overflow="visible"/>
		</clipPath>
		<path clip-path="url(#SVGID_2_)" fill="#FFFFFF" d="M171.361,30.544c0.818,0.112,1.486,0.372,2.08,0.706
			c0.595,0.297,1.04,0.78,1.375,1.337c0.334,0.594,0.483,1.3,0.483,2.154c0,1.819-0.632,3.045-1.858,3.676
			c-1.262,0.632-3.008,0.966-5.347,0.966h-2.303v-8.951c0.78-0.074,1.783-0.111,3.008-0.111
			C169.692,30.321,170.583,30.396,171.361,30.544 M164.715,26.273c-1.374,0.111-2.6,0.26-3.714,0.52V52.79h4.791v-9.285h2.377
			c1.931,0,3.64-0.148,5.162-0.482c1.485-0.335,2.747-0.854,3.787-1.56s1.82-1.597,2.377-2.711c0.558-1.077,0.817-2.414,0.817-3.974
			c0-2.934-1.003-5.125-3.045-6.537c-2.043-1.374-4.977-2.079-8.802-2.079C167.315,26.162,166.052,26.199,164.715,26.273"/>
		<path clip-path="url(#SVGID_2_)" fill="#FFFFFF" d="M196.29,32.884c-0.594,2.377-1.226,4.865-1.931,7.39
			c-0.706,2.563-1.486,4.94-2.267,7.205c-0.481-1.076-0.965-2.265-1.448-3.528c-0.482-1.262-0.965-2.525-1.374-3.825
			c-0.445-1.263-0.854-2.525-1.226-3.788c-0.371-1.226-0.668-2.377-0.928-3.454h-4.902c1.039,3.714,2.229,7.205,3.565,10.51
			c1.337,3.269,2.711,6.314,4.159,9.099c-0.52,1.226-1.114,2.08-1.782,2.674c-0.669,0.557-1.597,0.854-2.786,0.854
			c-0.854,0-1.782-0.185-2.674-0.52l-0.854,3.677c0.372,0.186,0.893,0.334,1.598,0.483c0.668,0.149,1.374,0.223,2.079,0.223
			c1.078,0,2.043-0.112,2.822-0.372c0.818-0.222,1.561-0.631,2.229-1.151c0.668-0.52,1.262-1.188,1.781-2.006
			c0.521-0.816,1.041-1.782,1.561-2.933c2.711-6.128,5.088-12.999,7.131-20.538H196.29"/>
		<path clip-path="url(#SVGID_2_)" fill="#FFFFFF" d="M204.312,44.879c0,1.3,0.111,2.488,0.334,3.491
			c0.224,1.04,0.633,1.931,1.189,2.637c0.557,0.742,1.299,1.262,2.265,1.671c0.966,0.372,2.117,0.557,3.565,0.557
			c1.151,0,2.154-0.111,3.046-0.371c0.854-0.223,1.56-0.446,2.079-0.669l-0.742-3.639c-0.372,0.148-0.892,0.297-1.56,0.482
			c-0.632,0.186-1.374,0.26-2.229,0.26c-1.226,0-2.08-0.334-2.562-1.039c-0.521-0.669-0.781-1.82-0.781-3.417v-8.134h7.058v-3.825
			h-7.058v-5.979l-4.604,0.743V44.879"/>
		<path clip-path="url(#SVGID_2_)" fill="#FFFFFF" d="M225.035,52.79V36.932c0.297-0.074,0.78-0.186,1.411-0.298
			c0.632-0.111,1.226-0.185,1.856-0.185c0.78,0,1.449,0.111,1.97,0.334c0.519,0.186,0.965,0.557,1.262,1.003
			c0.335,0.483,0.557,1.077,0.669,1.82c0.148,0.78,0.222,1.671,0.222,2.748V52.79h4.606V41.611c0-1.374-0.149-2.6-0.409-3.751
			c-0.26-1.114-0.705-2.042-1.337-2.859c-0.631-0.78-1.485-1.412-2.525-1.857c-1.04-0.446-2.377-0.669-3.974-0.669
			c-0.669,0-1.3,0.075-1.968,0.186c-0.706,0.111-1.263,0.26-1.783,0.445v-9.841l-4.604,0.743V52.79H225.035"/>
		<path clip-path="url(#SVGID_2_)" fill="#FFFFFF" d="M254.561,47.554c-0.854,1.151-2.042,1.745-3.565,1.745
			s-2.711-0.594-3.565-1.745c-0.854-1.152-1.263-2.749-1.263-4.754c0-1.969,0.408-3.528,1.263-4.68
			c0.854-1.151,2.042-1.708,3.565-1.708s2.711,0.557,3.565,1.708c0.854,1.152,1.263,2.711,1.263,4.68
			C255.823,44.805,255.415,46.402,254.561,47.554 M259.834,38.529c-0.482-1.263-1.114-2.377-1.968-3.268
			c-0.818-0.929-1.82-1.634-3.009-2.117c-1.188-0.483-2.451-0.743-3.862-0.743s-2.674,0.26-3.825,0.743
			c-1.188,0.483-2.189,1.188-3.046,2.117c-0.853,0.891-1.485,2.005-1.968,3.268c-0.483,1.3-0.705,2.711-0.705,4.271
			c0,1.597,0.222,3.008,0.705,4.308c0.482,1.3,1.115,2.414,1.968,3.305c0.817,0.929,1.82,1.635,3.009,2.155
			c1.151,0.482,2.451,0.742,3.862,0.742s2.711-0.26,3.901-0.742c1.187-0.52,2.189-1.226,3.007-2.155
			c0.854-0.891,1.485-2.005,1.968-3.305c0.446-1.3,0.669-2.711,0.669-4.308C260.54,41.24,260.317,39.829,259.834,38.529"/>
		<path clip-path="url(#SVGID_2_)" fill="#FFFFFF" d="M265.294,52.79h4.604V36.746c0.298-0.037,0.781-0.112,1.412-0.186
			s1.227-0.111,1.82-0.111c0.78,0,1.449,0.111,1.969,0.334c0.557,0.186,1.002,0.557,1.299,1.003c0.334,0.483,0.559,1.077,0.668,1.82
			c0.15,0.78,0.225,1.671,0.225,2.748V52.79h4.604V41.611c0-1.337-0.148-2.6-0.409-3.714c-0.26-1.114-0.705-2.079-1.374-2.896
			c-0.631-0.78-1.484-1.412-2.599-1.857c-1.077-0.446-2.414-0.669-4.048-0.669c-1.709,0-3.307,0.111-4.717,0.334
			c-1.412,0.26-2.563,0.483-3.454,0.743V52.79"/>
		<path clip-path="url(#SVGID_2_)" fill="#FFFFFF" d="M163.192,82.272c-1.188-0.409-2.117-0.78-2.785-1.151l-1.412,3.936
			c0.297,0.149,0.706,0.372,1.226,0.595c0.483,0.185,1.114,0.409,1.783,0.631c0.705,0.186,1.522,0.372,2.414,0.483
			c0.891,0.147,1.894,0.223,2.971,0.223c3.231,0,5.719-0.669,7.39-1.969c1.673-1.3,2.526-3.119,2.526-5.496
			c0-1.263-0.186-2.303-0.52-3.194c-0.372-0.854-0.893-1.634-1.561-2.266c-0.669-0.668-1.485-1.225-2.451-1.671
			c-1.003-0.483-2.08-0.928-3.343-1.411c-0.705-0.223-1.374-0.52-1.968-0.78c-0.594-0.297-1.114-0.594-1.56-0.929
			c-0.445-0.297-0.78-0.705-1.003-1.114c-0.26-0.408-0.371-0.891-0.371-1.485c0-0.966,0.371-1.709,1.077-2.266
			c0.743-0.52,1.745-0.779,3.008-0.779c1.114,0,2.154,0.111,3.194,0.371c1.003,0.26,1.967,0.631,2.823,1.114l1.485-3.9
			c-0.742-0.408-1.745-0.817-3.009-1.188c-1.3-0.371-2.748-0.557-4.381-0.557c-2.86,0-5.088,0.668-6.76,2.043
			c-1.634,1.337-2.451,3.231-2.451,5.607c0,1.152,0.186,2.117,0.594,2.934c0.372,0.817,0.892,1.486,1.56,2.08
			c0.632,0.594,1.374,1.077,2.229,1.448c0.854,0.409,1.745,0.781,2.636,1.115c0.929,0.297,1.746,0.594,2.452,0.928
			c0.705,0.297,1.3,0.632,1.82,1.003c0.482,0.371,0.854,0.78,1.114,1.226c0.259,0.482,0.408,1.002,0.408,1.633
			c0,1.078-0.408,1.895-1.188,2.489c-0.78,0.557-2.043,0.854-3.751,0.854C165.754,82.829,164.343,82.643,163.192,82.272"/>
		<path clip-path="url(#SVGID_2_)" fill="#FFFFFF" d="M193.312,81.195c-0.854,1.151-2.042,1.745-3.565,1.745
			s-2.711-0.594-3.565-1.745c-0.854-1.152-1.263-2.749-1.263-4.754c0-1.969,0.408-3.528,1.263-4.68
			c0.854-1.151,2.042-1.708,3.565-1.708s2.711,0.557,3.565,1.708c0.854,1.152,1.263,2.711,1.263,4.68
			C194.574,78.446,194.166,80.043,193.312,81.195 M198.585,72.17c-0.482-1.263-1.114-2.377-1.968-3.268
			c-0.818-0.929-1.82-1.634-3.009-2.117c-1.188-0.483-2.451-0.743-3.862-0.743s-2.674,0.26-3.825,0.743
			c-1.188,0.483-2.189,1.188-3.046,2.117c-0.853,0.891-1.485,2.005-1.968,3.268c-0.483,1.3-0.705,2.711-0.705,4.271
			c0,1.597,0.222,3.008,0.705,4.308c0.482,1.3,1.115,2.414,1.968,3.305c0.817,0.929,1.82,1.635,3.009,2.155
			c1.151,0.482,2.451,0.742,3.862,0.742s2.711-0.26,3.901-0.742c1.187-0.52,2.189-1.226,3.007-2.155
			c0.854-0.891,1.484-2.005,1.968-3.305c0.446-1.3,0.669-2.711,0.669-4.308C199.291,74.881,199.068,73.47,198.585,72.17"/>
		<path clip-path="url(#SVGID_2_)" fill="#FFFFFF" d="M206.05,59.098c-1.337,1.448-2.005,3.454-2.005,6.016v21.318h4.605V70.351
			h7.242v-3.825h-7.242v-1.337c0-0.632,0.073-1.226,0.186-1.783c0.148-0.52,0.334-1.003,0.631-1.374
			c0.334-0.372,0.742-0.668,1.227-0.891c0.519-0.223,1.113-0.335,1.855-0.335c0.669,0,1.264,0.075,1.857,0.186
			c0.557,0.149,1.039,0.297,1.486,0.52l0.891-3.788c-0.408-0.149-1.003-0.334-1.82-0.52c-0.816-0.186-1.745-0.297-2.822-0.297
			C209.43,56.907,207.387,57.65,206.05,59.098"/>
		<path clip-path="url(#SVGID_2_)" fill="#FFFFFF" d="M219.049,78.521c0,1.3,0.111,2.488,0.334,3.491
			c0.223,1.04,0.632,1.931,1.189,2.637c0.557,0.742,1.299,1.262,2.265,1.671c0.966,0.372,2.117,0.557,3.565,0.557
			c1.151,0,2.153-0.111,3.046-0.371c0.854-0.223,1.56-0.445,2.079-0.669l-0.742-3.639c-0.372,0.148-0.893,0.297-1.561,0.482
			c-0.631,0.186-1.374,0.26-2.228,0.26c-1.227,0-2.08-0.334-2.563-1.039c-0.52-0.669-0.78-1.82-0.78-3.417V70.35h7.058v-3.825
			h-7.058v-5.979l-4.604,0.743V78.521"/>
		<path clip-path="url(#SVGID_2_)" fill="#FFFFFF" d="M248.945,80.452c0.706,2.117,1.374,4.085,2.042,5.979h3.789
			c0.521-1.151,1.077-2.488,1.634-4.011c0.557-1.485,1.114-3.082,1.634-4.79c0.558-1.709,1.114-3.492,1.672-5.349
			c0.557-1.894,1.113-3.788,1.634-5.756h-4.754c-0.223,1.077-0.482,2.228-0.816,3.454c-0.298,1.226-0.595,2.488-0.966,3.751
			c-0.334,1.3-0.669,2.525-1.04,3.751c-0.334,1.225-0.705,2.34-1.003,3.342c-0.408-1.151-0.78-2.377-1.151-3.602
			c-0.372-1.226-0.706-2.488-1.04-3.714c-0.297-1.263-0.594-2.488-0.891-3.64c-0.26-1.188-0.521-2.302-0.743-3.342h-3.528
			c-0.26,1.04-0.52,2.154-0.816,3.342c-0.26,1.152-0.594,2.377-0.929,3.64c-0.334,1.226-0.669,2.488-1.04,3.714
			c-0.371,1.225-0.742,2.451-1.114,3.602c-0.371-1.002-0.743-2.117-1.077-3.342c-0.371-1.226-0.706-2.451-1.04-3.751
			c-0.334-1.263-0.631-2.525-0.928-3.751c-0.334-1.226-0.595-2.377-0.817-3.454h-4.866c0.521,1.968,1.078,3.862,1.635,5.756
			c0.558,1.857,1.114,3.64,1.635,5.349c0.557,1.708,1.114,3.305,1.671,4.79c0.557,1.523,1.077,2.86,1.597,4.011h3.825
			c0.669-1.895,1.337-3.862,2.006-5.979c0.668-2.117,1.3-4.308,1.895-6.536C247.608,76.144,248.239,78.335,248.945,80.452"/>
		<path clip-path="url(#SVGID_2_)" fill="#FFFFFF" d="M267.886,66.339c-1.113,0.223-1.968,0.409-2.562,0.632l0.558,3.714
			c0.557-0.223,1.299-0.409,2.153-0.558c0.892-0.148,1.894-0.222,2.935-0.222c0.816,0,1.448,0.111,1.969,0.297
			c0.521,0.223,0.928,0.483,1.262,0.854c0.297,0.371,0.521,0.817,0.669,1.3c0.111,0.483,0.185,0.966,0.185,1.522v0.743
			c-0.63-0.148-1.225-0.26-1.781-0.334c-0.557-0.037-1.077-0.074-1.597-0.074c-1.077,0-2.117,0.111-3.121,0.334
			c-1.002,0.223-1.894,0.557-2.673,1.04c-0.744,0.52-1.337,1.151-1.783,1.931c-0.445,0.78-0.669,1.746-0.669,2.897
			c0,1.188,0.187,2.191,0.595,3.008c0.372,0.817,0.929,1.449,1.634,1.969c0.706,0.519,1.522,0.891,2.526,1.114
			c1.002,0.223,2.078,0.334,3.268,0.334c1.782,0,3.417-0.111,4.865-0.334c1.411-0.223,2.487-0.409,3.194-0.557V73.916
			c0-1.189-0.149-2.229-0.409-3.231c-0.26-0.966-0.705-1.783-1.336-2.489c-0.595-0.668-1.449-1.188-2.489-1.597
			c-1.04-0.371-2.302-0.557-3.825-0.557C270.188,66.042,269.001,66.154,267.886,66.339 M269.074,82.569
			c-0.706-0.409-1.04-1.188-1.04-2.266c0-0.556,0.112-1.039,0.371-1.411c0.261-0.334,0.596-0.631,1.003-0.854
			c0.446-0.186,0.893-0.334,1.412-0.408c0.521-0.075,1.04-0.112,1.522-0.112c0.595,0,1.115,0.037,1.597,0.112
			c0.483,0.074,0.854,0.148,1.113,0.222v5.126c-0.741,0.148-1.819,0.222-3.23,0.222C270.672,83.2,269.743,82.978,269.074,82.569"/>
		<path clip-path="url(#SVGID_2_)" fill="#FFFFFF" d="M297.3,66.785c-0.223-0.074-0.521-0.149-0.928-0.26
			c-0.372-0.074-0.743-0.149-1.152-0.223c-0.407-0.037-0.816-0.111-1.225-0.148c-0.409-0.038-0.78-0.038-1.078-0.038
			c-1.633,0-3.082,0.149-4.419,0.446c-1.337,0.297-2.451,0.594-3.342,0.929v18.94h4.604V70.499c0.224-0.074,0.632-0.149,1.188-0.26
			c0.595-0.112,1.114-0.149,1.634-0.149c0.892,0,1.672,0.075,2.34,0.186c0.669,0.149,1.188,0.297,1.561,0.408L297.3,66.785"/>
		<path clip-path="url(#SVGID_2_)" fill="#FFFFFF" d="M304.171,74.51c0.075-0.594,0.223-1.152,0.407-1.709
			c0.224-0.557,0.484-1.04,0.855-1.485c0.372-0.446,0.816-0.78,1.375-1.04c0.52-0.26,1.15-0.408,1.856-0.408
			s1.299,0.111,1.782,0.371c0.483,0.223,0.929,0.557,1.263,0.966c0.334,0.445,0.595,0.928,0.78,1.485
			c0.185,0.594,0.26,1.188,0.26,1.82H304.171 M299.975,80.712c0.408,1.226,1.04,2.34,1.894,3.268
			c0.817,0.929,1.894,1.634,3.194,2.153c1.3,0.521,2.822,0.78,4.567,0.78c0.669,0,1.337-0.037,2.006-0.111s1.263-0.186,1.857-0.297
			c0.556-0.111,1.076-0.223,1.522-0.372c0.445-0.147,0.779-0.296,1.04-0.407l-0.595-3.751c-0.52,0.223-1.263,0.445-2.19,0.631
			c-0.93,0.186-1.969,0.297-3.083,0.297c-1.895,0-3.343-0.445-4.346-1.3c-1.003-0.891-1.596-2.117-1.709-3.713h13.148
			c0.037-0.26,0.037-0.52,0.037-0.855c0.037-0.334,0.037-0.594,0.037-0.854c0-3.38-0.78-5.905-2.304-7.613
			c-1.521-1.671-3.676-2.526-6.425-2.526c-1.15,0-2.302,0.223-3.416,0.669c-1.113,0.445-2.117,1.114-2.971,1.968
			c-0.855,0.891-1.56,1.968-2.08,3.306c-0.52,1.299-0.78,2.822-0.78,4.604C299.38,78.075,299.565,79.449,299.975,80.712"/>
		<path clip-path="url(#SVGID_2_)" fill="#FFFFFF" d="M173.145,120.073c1.895-4.123,3.714-8.394,5.459-12.887
			c1.746-4.494,3.417-8.988,4.94-13.481h-5.125c-0.595,1.782-1.189,3.602-1.82,5.459c-0.632,1.82-1.263,3.677-1.931,5.459
			c-0.632,1.82-1.263,3.528-1.895,5.2c-0.632,1.671-1.263,3.193-1.82,4.567c-0.631-1.374-1.263-2.934-1.894-4.604
			c-0.632-1.672-1.263-3.38-1.894-5.163c-0.632-1.82-1.263-3.639-1.894-5.459c-0.632-1.857-1.263-3.677-1.856-5.459h-5.275
			c1.485,4.493,3.12,8.987,4.902,13.481c1.746,4.493,3.566,8.764,5.459,12.887H173.145"/>
		<path clip-path="url(#SVGID_2_)" fill="#FFFFFF" d="M188.895,108.151c0.074-0.594,0.222-1.152,0.407-1.709
			c0.224-0.557,0.483-1.04,0.854-1.485c0.372-0.445,0.817-0.779,1.375-1.039c0.521-0.261,1.151-0.408,1.857-0.408
			c0.705,0,1.299,0.111,1.781,0.371c0.483,0.223,0.93,0.557,1.264,0.966c0.334,0.444,0.594,0.928,0.779,1.485
			c0.186,0.594,0.261,1.188,0.261,1.819H188.895 M184.697,114.354c0.409,1.227,1.04,2.34,1.894,3.269
			c0.817,0.929,1.895,1.634,3.194,2.153c1.3,0.521,2.823,0.78,4.568,0.78c0.669,0,1.337-0.037,2.006-0.111
			c0.668-0.074,1.262-0.186,1.856-0.297c0.557-0.111,1.076-0.223,1.522-0.372c0.446-0.147,0.78-0.297,1.04-0.408l-0.594-3.751
			c-0.521,0.224-1.264,0.445-2.191,0.632c-0.929,0.186-1.969,0.297-3.083,0.297c-1.894,0-3.342-0.445-4.345-1.3
			c-1.003-0.892-1.597-2.117-1.709-3.714h13.147c0.037-0.26,0.037-0.52,0.037-0.854c0.037-0.334,0.037-0.595,0.037-0.854
			c0-3.38-0.78-5.904-2.303-7.612c-1.522-1.671-3.676-2.526-6.425-2.526c-1.151,0-2.303,0.223-3.416,0.669
			c-1.114,0.445-2.117,1.114-2.972,1.968c-0.854,0.892-1.56,1.969-2.08,3.307c-0.52,1.299-0.779,2.821-0.779,4.604
			C184.104,111.717,184.288,113.091,184.697,114.354"/>
		<path clip-path="url(#SVGID_2_)" fill="#FFFFFF" d="M219.088,100.427c-0.224-0.074-0.521-0.149-0.928-0.26
			c-0.372-0.074-0.743-0.149-1.152-0.224c-0.408-0.036-0.817-0.11-1.226-0.147c-0.408-0.038-0.779-0.038-1.077-0.038
			c-1.634,0-3.082,0.149-4.419,0.446c-1.338,0.297-2.451,0.594-3.343,0.929v18.94h4.605v-15.933c0.223-0.074,0.631-0.148,1.188-0.26
			c0.596-0.112,1.114-0.149,1.635-0.149c0.892,0,1.672,0.075,2.34,0.187c0.669,0.148,1.189,0.297,1.56,0.408L219.088,100.427"/>
		<path clip-path="url(#SVGID_2_)" fill="#FFFFFF" d="M239.589,105.886c-0.372-1.263-0.966-2.376-1.672-3.269
			c-0.742-0.927-1.671-1.634-2.785-2.116c-1.077-0.482-2.34-0.742-3.714-0.742c-0.965,0-1.819,0.11-2.562,0.334
			c-0.779,0.26-1.448,0.482-1.968,0.779V90.548l-4.605,0.742v28.151c0.929,0.297,2.043,0.52,3.453,0.78
			c1.374,0.223,2.823,0.334,4.346,0.334c1.56,0,2.971-0.223,4.196-0.705c1.264-0.483,2.304-1.189,3.194-2.117
			c0.854-0.892,1.523-2.006,2.005-3.268c0.483-1.301,0.706-2.749,0.706-4.347C240.183,108.598,239.996,107.187,239.589,105.886
			 M234.018,114.836c-0.966,1.151-2.302,1.708-3.974,1.708c-0.743,0-1.374-0.036-1.895-0.11c-0.52-0.037-0.928-0.111-1.262-0.187
			v-11.4c0.408-0.297,0.928-0.521,1.596-0.78c0.706-0.223,1.411-0.334,2.154-0.334c1.672,0,2.897,0.557,3.677,1.708
			c0.78,1.151,1.151,2.674,1.151,4.604C235.466,112.088,234.983,113.686,234.018,114.836"/>
		<path clip-path="url(#SVGID_2_)" fill="#FFFFFF" d="M247.981,99.981c-1.113,0.222-1.969,0.408-2.562,0.631l0.557,3.714
			c0.558-0.223,1.301-0.408,2.154-0.558c0.891-0.148,1.894-0.222,2.934-0.222c0.817,0,1.448,0.11,1.97,0.297
			c0.52,0.223,0.928,0.482,1.262,0.854c0.297,0.371,0.52,0.817,0.669,1.301c0.111,0.483,0.185,0.966,0.185,1.521v0.743
			c-0.631-0.148-1.225-0.26-1.781-0.334c-0.558-0.037-1.077-0.074-1.598-0.074c-1.076,0-2.116,0.111-3.119,0.335
			c-1.004,0.222-1.895,0.556-2.675,1.039c-0.744,0.521-1.337,1.151-1.782,1.931c-0.445,0.781-0.668,1.746-0.668,2.897
			c0,1.188,0.186,2.191,0.594,3.009c0.372,0.816,0.929,1.448,1.634,1.968c0.706,0.52,1.523,0.892,2.526,1.115
			c1.002,0.221,2.078,0.334,3.268,0.334c1.782,0,3.417-0.113,4.865-0.334c1.411-0.224,2.488-0.41,3.193-0.558v-12.033
			c0-1.189-0.148-2.229-0.408-3.231c-0.261-0.966-0.705-1.782-1.336-2.488c-0.596-0.668-1.449-1.188-2.489-1.598
			c-1.04-0.371-2.302-0.557-3.825-0.557C250.284,99.684,249.096,99.796,247.981,99.981 M249.17,116.211
			c-0.706-0.409-1.04-1.188-1.04-2.267c0-0.556,0.112-1.039,0.371-1.411c0.26-0.334,0.595-0.631,1.003-0.854
			c0.446-0.187,0.892-0.334,1.412-0.408c0.52-0.075,1.04-0.112,1.521-0.112c0.596,0,1.115,0.037,1.598,0.112
			c0.482,0.074,0.854,0.148,1.113,0.222v5.126c-0.741,0.148-1.819,0.223-3.23,0.223C250.767,116.842,249.839,116.619,249.17,116.211
			"/>
		<path clip-path="url(#SVGID_2_)" fill="#FFFFFF" d="M265.251,120.073h4.605v-16.044c0.297-0.037,0.779-0.112,1.411-0.186
			c0.632-0.074,1.226-0.111,1.819-0.111c0.78,0,1.449,0.111,1.97,0.334c0.557,0.186,1.002,0.557,1.299,1.003
			c0.335,0.483,0.558,1.077,0.669,1.819c0.148,0.78,0.223,1.672,0.223,2.748v10.437h4.605v-11.179c0-1.338-0.149-2.601-0.409-3.715
			c-0.26-1.113-0.705-2.078-1.374-2.896c-0.63-0.78-1.485-1.412-2.6-1.856c-1.076-0.446-2.413-0.67-4.048-0.67
			c-1.709,0-3.306,0.111-4.717,0.334c-1.412,0.261-2.562,0.483-3.454,0.743V120.073"/>
		<path clip-path="url(#SVGID_2_)" fill="#FFFFFF" d="M304.284,90.548l-4.605,0.742v9.582c-0.52-0.297-1.151-0.52-1.894-0.779
			c-0.743-0.224-1.598-0.334-2.563-0.334c-1.411,0-2.674,0.26-3.751,0.743c-1.077,0.481-2.005,1.188-2.785,2.116
			c-0.742,0.892-1.337,2.005-1.709,3.269c-0.407,1.3-0.594,2.711-0.594,4.308s0.223,3.008,0.706,4.309
			c0.483,1.263,1.151,2.376,2.005,3.268c0.891,0.891,1.931,1.597,3.194,2.08c1.226,0.482,2.637,0.705,4.196,0.705
			c1.523,0,2.972-0.111,4.346-0.334c1.411-0.26,2.525-0.482,3.454-0.78V90.548 M292.251,105.44c0.78-1.151,2.006-1.708,3.677-1.708
			c0.742,0,1.448,0.111,2.154,0.371c0.668,0.223,1.188,0.483,1.597,0.78v11.363c-0.334,0.075-0.743,0.149-1.263,0.187
			c-0.52,0.074-1.151,0.111-1.894,0.111c-1.672,0-3.009-0.558-3.975-1.708c-0.966-1.151-1.448-2.749-1.448-4.792
			C291.1,108.114,291.471,106.592,292.251,105.44"/>
		<path clip-path="url(#SVGID_2_)" fill="#FFFFFF" d="M161.667,139.467c0.043-0.344,0.128-0.665,0.236-0.987
			c0.129-0.322,0.279-0.602,0.494-0.859c0.215-0.258,0.472-0.451,0.794-0.601c0.301-0.152,0.666-0.237,1.074-0.237
			s0.752,0.065,1.031,0.215c0.279,0.129,0.537,0.322,0.73,0.56c0.193,0.257,0.343,0.535,0.451,0.858
			c0.107,0.343,0.15,0.688,0.15,1.052H161.667 M159.24,143.054c0.236,0.709,0.601,1.353,1.095,1.89
			c0.473,0.537,1.095,0.945,1.847,1.245c0.752,0.301,1.632,0.451,2.641,0.451c0.387,0,0.773-0.022,1.16-0.065
			c0.386-0.042,0.73-0.107,1.074-0.171c0.322-0.064,0.622-0.129,0.88-0.215c0.258-0.086,0.451-0.171,0.601-0.236l-0.343-2.17
			c-0.301,0.13-0.73,0.259-1.267,0.366s-1.138,0.172-1.782,0.172c-1.096,0-1.933-0.258-2.513-0.752
			c-0.58-0.515-0.923-1.224-0.988-2.147h7.602c0.022-0.149,0.022-0.301,0.022-0.493c0.021-0.193,0.021-0.345,0.021-0.494
			c0-1.954-0.451-3.414-1.331-4.402c-0.881-0.966-2.126-1.46-3.715-1.46c-0.666,0-1.332,0.128-1.976,0.386s-1.224,0.645-1.718,1.139
			c-0.494,0.516-0.902,1.138-1.203,1.911c-0.3,0.751-0.451,1.633-0.451,2.662C158.896,141.528,159.004,142.323,159.24,143.054"/>
		<path clip-path="url(#SVGID_2_)" fill="#FFFFFF" d="M174.56,143.633c-0.345-0.321-0.751-0.494-1.246-0.494
			c-0.494,0-0.923,0.173-1.245,0.494c-0.344,0.322-0.515,0.752-0.515,1.268c0,0.515,0.171,0.923,0.515,1.246
			c0.322,0.321,0.751,0.492,1.245,0.492c0.495,0,0.901-0.171,1.246-0.492c0.344-0.323,0.515-0.731,0.515-1.246
			C175.074,144.385,174.903,143.955,174.56,143.633"/>
		<path clip-path="url(#SVGID_2_)" fill="#FFFFFF" d="M183.596,146.36c1.095-2.384,2.147-4.853,3.157-7.452
			c1.009-2.598,1.975-5.196,2.855-7.795h-2.964c-0.343,1.031-0.687,2.083-1.052,3.157c-0.365,1.052-0.729,2.126-1.116,3.157
			c-0.366,1.052-0.73,2.04-1.096,3.006s-0.73,1.847-1.052,2.641c-0.365-0.794-0.73-1.696-1.096-2.662
			c-0.364-0.967-0.729-1.955-1.095-2.984c-0.366-1.054-0.731-2.105-1.095-3.157c-0.366-1.074-0.731-2.126-1.074-3.157h-3.05
			c0.858,2.599,1.804,5.197,2.835,7.795c1.009,2.6,2.062,5.068,3.157,7.452H183.596"/>
		<path clip-path="url(#SVGID_2_)" fill="#FFFFFF" d="M192.461,143.633c-0.344-0.321-0.751-0.494-1.246-0.494
			c-0.494,0-0.923,0.173-1.245,0.494c-0.344,0.322-0.515,0.752-0.515,1.268c0,0.515,0.171,0.923,0.515,1.246
			c0.322,0.321,0.751,0.492,1.245,0.492c0.495,0,0.902-0.171,1.246-0.492c0.345-0.323,0.516-0.731,0.516-1.246
			C192.977,144.385,192.806,143.955,192.461,143.633"/>
		<path clip-path="url(#SVGID_2_)" fill="none" stroke="#FFFFFF" stroke-width="7.116" d="M113.3,132.857
			c0,8.565-7.434,12.888-14.97,15.049c-11.353,3.258-20.456,2.76-29.934,0c-7.912-2.306-14.962-7.02-14.962-15.049v-28.248
			c0-8.145,6.775-15.08,14.962-15.08H98.33c9.972,0,18.718-8.627,18.718-18.84V57.524h11.229c8.723,0,12.829,6.453,14.974,15.054
			c2.996,11.923,3.13,20.831,0,30.133c-3.024,9.032-6.271,15.059-14.974,15.059H83.359v3.778H113.3V132.857z"/>
	</g>
	<g>
		<defs>
			<path id="SVGID_3_" d="M117.048,57.524v13.165c0,10.213-8.747,18.84-18.718,18.84H68.396c-8.187,0-14.962,6.937-14.962,15.08
				v28.248c0,8.027,7.05,12.744,14.962,15.049c9.478,2.76,18.581,3.258,29.934,0c7.536-2.161,14.97-6.482,14.97-15.049V121.55
				H83.358v-3.777h44.918c8.703,0,11.95-6.028,14.975-15.059c3.129-9.305,2.996-18.215,0-30.136
				c-2.145-8.6-6.251-15.054-14.975-15.054H117.048z"/>
		</defs>
		<clipPath id="SVGID_4_">
			<use xlink:href="#SVGID_3_"  overflow="visible"/>
		</clipPath>
		
			<linearGradient id="SVGID_5_" gradientUnits="userSpaceOnUse" x1="0" y1="170.0781" x2="1" y2="170.0781" gradientTransform="matrix(-181.973 0 0 -821.536 145.375 139829.7812)">
			<stop  offset="0" style="stop-color:#F9B000"/>
			<stop  offset="1" style="stop-color:#FFE873"/>
		</linearGradient>
		<rect x="53.434" y="57.524" clip-path="url(#SVGID_4_)" fill="url(#SVGID_5_)" width="92.946" height="93.64"/>
	</g>
	<g>
		<defs>
			<rect id="SVGID_6_" y="-0.001" width="342.991" height="170.077"/>
		</defs>
		<clipPath id="SVGID_7_">
			<use xlink:href="#SVGID_6_"  overflow="visible"/>
		</clipPath>
		<path clip-path="url(#SVGID_7_)" fill="none" stroke="#FFFFFF" stroke-width="7.116" d="M53.636,42.443
			c0-8.561,2.29-13.226,14.963-15.438c8.615-1.503,19.665-1.702,29.951,0c8.114,1.324,14.97,7.392,14.97,15.438v28.246
			c0,8.3-6.649,15.07-14.97,15.07H68.599c-10.144,0-18.709,8.666-18.709,18.457v13.555H39.591c-8.7,0-13.762-6.273-15.907-15.056
			c-2.873-11.797-2.744-18.832,0-30.136c2.387-9.855,10.003-15.054,18.711-15.054h41.189v-3.789H53.636V42.443z"/>
	</g>
	<g>
		<defs>
			<path id="SVGID_8_" d="M68.599,27.005c-12.673,2.213-14.964,6.879-14.964,15.438v11.292h29.949v3.789H42.395
				c-8.709,0-16.326,5.199-18.711,15.054c-2.745,11.306-2.873,18.338,0,30.136c2.145,8.783,7.207,15.059,15.907,15.059H49.89
				v-13.556c0-9.791,8.565-18.457,18.709-18.457H98.55c8.321,0,14.97-6.771,14.97-15.071V42.443c0-8.046-6.856-14.114-14.97-15.438
				c-4.985-0.825-10.148-1.203-15.128-1.203C78.126,25.802,73.04,26.23,68.599,27.005"/>
		</defs>
		<clipPath id="SVGID_9_">
			<use xlink:href="#SVGID_8_"  overflow="visible"/>
		</clipPath>
		
			<linearGradient id="SVGID_10_" gradientUnits="userSpaceOnUse" x1="0" y1="170.0781" x2="1" y2="170.0781" gradientTransform="matrix(-91.805 -0.7299 -3.6566 459.919 735.1505 -78149.4375)">
			<stop  offset="0" style="stop-color:#39699A"/>
			<stop  offset="1" style="stop-color:#3977B4"/>
		</linearGradient>
		<polygon clip-path="url(#SVGID_9_)" fill="url(#SVGID_10_)" points="113.514,118.509 20.08,117.767 20.817,25.065 114.251,25.808 
					"/>
	</g>
	<g>
		<defs>
			<rect id="SVGID_11_" y="-0.001" width="342.991" height="170.077"/>
		</defs>
		<clipPath id="SVGID_12_">
			<use xlink:href="#SVGID_11_"  overflow="visible"/>
		</clipPath>
		<path clip-path="url(#SVGID_12_)" fill="#FFFFFF" d="M63.49,40.562c0-3.115,2.508-5.646,5.614-5.646
			c3.086,0,5.612,2.531,5.612,5.646c0,3.125-2.526,5.644-5.612,5.644C65.998,46.206,63.49,43.687,63.49,40.562"/>
		<path clip-path="url(#SVGID_12_)" fill="#FFFFFF" d="M94.113,134.723c0-3.108,2.518-5.63,5.6-5.63c3.116,0,5.62,2.521,5.62,5.63
			c0,3.133-2.504,5.649-5.62,5.649C96.631,140.372,94.113,137.855,94.113,134.723"/>
	</g>
</g>
</svg>
