<?xml version="1.0" encoding="UTF-8"?>
<svg id="Layer_1" data-name="Layer 1" xmlns="http://www.w3.org/2000/svg" viewBox="0 0 915.02 302.74">
  <defs>
    <style>
      .cls-1 {
        fill: #a43a8f;
      }

      .cls-2 {
        fill: #472f8c;
      }

      .cls-3 {
        fill: #99c941;
      }
    </style>
  </defs>
  <path class="cls-2" d="M409,189.87c.21-.26.43-.53.63-.8,6.76-8.71,10.87-19.86,10.93-31.96-.04-2.75-.29-5.32-.72-7.74-.96-6.79-3.21-13.14-6.45-18.78.12.14.24.29.36.43-8.1-14.41-22.71-24.19-39.39-24.56-.08,0-.16,0-.24,0-.25,0-.5-.01-.75-.01-.04,0-.09,0-.13,0-.04,0-.09,0-.13,0-.25,0-.5,0-.75.01-.08,0-.16,0-.24,0-16.67.37-31.28,10.16-39.39,24.56.12-.15.24-.29.36-.43-3.46,5.99-5.77,12.8-6.62,20.08-.31,2.09-.5,4.3-.53,6.63.14,27.62,21.33,50.28,47.17,50.28,14.27,0,27.13-6.86,35.8-17.6.03-.03.05-.07.08-.1ZM368.06,113.07c.22-.03.44-.07.66-.1.23-.03.47-.06.7-.09.39-.05.79-.08,1.19-.12.2-.02.4-.03.6-.05.25-.02.5-.03.76-.04.27-.01.53-.02.8-.02.16,0,.33,0,.49,0,.16,0,.33,0,.49,0,.27,0,.53.01.8.02.25.01.51.02.76.04.2.01.4.03.6.05.4.03.8.07,1.19.12.23.03.47.06.7.09.22.03.44.06.66.1.25.04.5.09.75.13,20.01,3.7,27.8,25.76,27.8,43.8,0,10.71-2.74,22.75-9.13,31.57,0,0-.01.02-.02.03-.19.26-.38.51-.58.77-5.39,6.93-13.18,11.63-23.86,11.64-1.59,0-3.18-.12-4.75-.34-1.09-.1-2.17-.23-3.24-.39-3.5-.86-6.6-2.31-9.33-4.2.08.03.16.06.24.08-11.93-8.2-16.8-24.88-16.8-39.16,0-18.05,7.79-40.1,27.8-43.8.25-.05.5-.09.75-.13Z"/>
  <path class="cls-2" d="M496.11,203.81c0,.78-.78,1.17-2.34,1.17h-14.77c-1.07,0-1.85-.54-2.34-1.61l-2.34-5.12c-.49-.97-.98-1.02-1.46-.15-4.19,5.56-10.29,8.34-18.28,8.34-6.24,0-11.24-2.02-14.99-6.07-3.75-4.04-5.63-9.77-5.63-17.19v-29.4c0-3.51-1.61-5.7-4.83-6.58l-3.07-.88c-1.56-.49-2.34-1.02-2.34-1.61,0-.78.78-1.17,2.34-1.17h20.18c1.27,0,1.9.34,1.9,1.02,0,.1-.61.76-1.83,1.97-1.22,1.22-1.83,4.12-1.83,8.7v30.27c0,8.78,4.53,13.16,13.6,13.16,3.41,0,6.82-1.02,10.24-3.07,3.8-2.34,5.7-5.12,5.7-8.34v-33.49c0-3.51-1.61-5.7-4.83-6.58l-3.07-.88c-1.56-.49-2.34-1.02-2.34-1.61,0-.78.78-1.17,2.34-1.17h17.11c1.36,0,2,.59,1.9,1.76l-.59,9.65v39.93c0,3.61,1.66,5.75,4.97,6.44l4.09.88c1.66.39,2.49.93,2.49,1.61Z"/>
  <path class="cls-2" d="M556.8,203.81c0,.78-.78,1.17-2.34,1.17h-14.48c-1.07,0-1.9-.54-2.49-1.61l-1.17-2.05c-.39-.68-.88-1.02-1.46-1.02s-1.22.24-1.9.73c-5.17,3.61-11.26,5.41-18.28,5.41-5.27,0-9.51-1.32-12.72-3.95-3.51-2.92-5.27-6.87-5.27-11.85,0-7.02,3.36-11.99,10.09-14.92,2.05-.88,5.27-1.8,9.65-2.78,5.46-1.27,9.02-2.14,10.68-2.63,5.17-1.56,7.75-4.04,7.75-7.46v-5.7c0-3.22-1.56-5.7-4.68-7.46-2.54-1.36-5.41-2.05-8.63-2.05-5.36,0-9.34,1.17-11.92,3.51-2.59,2.34-4.46,6.29-5.63,11.85-.2.49-.54.73-1.02.73-.58,0-.88-.29-.88-.88l-.15-17.55c0-.88.49-1.36,1.46-1.46,1.56-.1,4.63-.44,9.21-1.02,3.8-.49,6.87-.73,9.21-.73,7.8,0,13.55,1.51,17.26,4.53,4.19,3.51,6.29,9.26,6.29,17.26v30.86c0,3.8,1.56,6,4.68,6.58l4.39.88c1.56.29,2.34.83,2.34,1.61ZM534.87,189.77v-14.48c0-1.27-.54-1.66-1.61-1.17l-19.16,5.56c-4.78,1.37-7.17,4.19-7.17,8.48,0,8.48,3.8,12.72,11.41,12.72,4.58,0,8.48-1.05,11.7-3.14,3.22-2.1,4.83-4.75,4.83-7.97Z"/>
  <path class="cls-2" d="M680.02,187.87c0,12.38-7.56,18.57-22.67,18.57-6.63,0-13.51-.98-20.62-2.93-1.27-.39-2.05-1.8-2.34-4.24,0-1.76-.05-3.58-.15-5.48-.1-1.9-.34-4.46-.73-7.68-.2-1.17.15-1.76,1.02-1.76s1.41.54,1.61,1.61c2.05,5.85,4.92,9.85,8.63,11.99,3.22,1.95,7.99,2.93,14.33,2.93,3.02,0,5.75-.78,8.19-2.34,2.83-1.85,4.24-4.24,4.24-7.17,0-4.19-3.17-7.65-9.51-10.38-5.75-2.44-11.55-4.92-17.4-7.46-6.34-3.51-9.51-8.24-9.51-14.19,0-11.5,6.78-17.26,20.33-17.26,4.78,0,11.41.59,19.89,1.76.97.1,1.46.59,1.46,1.46l.29,14.48c0,1.17-.29,1.75-.88,1.75-.49,0-.88-.44-1.17-1.32-1.76-5.27-4.19-8.78-7.31-10.53-2.73-1.56-7.12-2.34-13.16-2.34-7.61,0-11.41,2.93-11.41,8.78,0,3.32,3.17,6.34,9.51,9.07,11.21,4.78,17.16,7.36,17.84,7.75,6.34,3.8,9.51,8.77,9.51,14.92Z"/>
  <path class="cls-2" d="M715.41,201.92l-4.97-.88c-3.22-.59-4.83-2.73-4.83-6.44v-16.02h0s0-23.63,0-23.63l.58-9.65c.1-1.17-.58-1.76-2.05-1.76h-18.87c-1.56,0-2.34.39-2.34,1.17s.78,1.32,2.34,1.61l4.97.88c3.22.59,4.83,2.73,4.83,6.44v14.6h0s0,25.05,0,25.05l-.58,9.65c-.1,1.17.58,1.76,2.05,1.76h18.87c1.56,0,2.34-.39,2.34-1.17s-.78-1.32-2.34-1.61Z"/>
  <path class="cls-2" d="M628.98,202.2l-3.07-.88c-3.22-.88-4.83-3.07-4.83-6.58v-29.4c0-7.41-1.88-13.14-5.63-17.18-3.76-4.04-8.75-6.07-14.99-6.07-8,0-14.09,2.78-18.28,8.34-.49.88-.98.83-1.46-.15l-2.34-5.12c-.49-1.07-1.27-1.61-2.34-1.61h-16.53c-1.56,0-2.34.39-2.34,1.17,0,.88.78,1.42,2.34,1.61l6,.88c3.31.49,4.97,2.63,4.97,6.44v29.16s.01.04.02.05v10.72l-.58,9.65c-.1,1.17.58,1.76,2.05,1.76h16.95c1.56,0,2.34-.39,2.34-1.17,0-.59-.78-1.12-2.34-1.61l-3.07-.88c-3.22-.88-4.83-3.07-4.83-6.58v-33.49c0-3.12,1.95-5.9,5.85-8.34,3.51-2.05,6.87-3.07,10.09-3.07,9.07,0,13.6,4.39,13.6,13.16v30.28c0,4.58-.61,7.48-1.83,8.7-1.22,1.22-1.83,1.88-1.83,1.97,0,.68.63,1.02,1.9,1.02h20.18c1.56,0,2.34-.39,2.34-1.17,0-.59-.78-1.12-2.34-1.61Z"/>
  <path class="cls-2" d="M706.2,119.42c0,2.05-.85,3.88-2.53,5.48-1.69,1.61-3.59,2.41-5.72,2.41-1.64,0-3.06-.56-4.27-1.68-1.21-1.12-1.81-2.51-1.81-4.17,0-2.14.82-4,2.46-5.56,1.64-1.56,3.52-2.34,5.65-2.34,4.15,0,6.23,1.95,6.23,5.85Z"/>
  <path class="cls-2" d="M784.45,148.38c0,.98-.54,1.46-1.61,1.46l-15.94.44c3.31,3.62,4.97,8.17,4.97,13.66,0,6.46-2.49,11.72-7.46,15.79-4.97,4.06-11.17,6.1-18.57,6.1h-4.24c-5.85,0-8.78,1.88-8.78,5.63,0,3.27,2.05,4.9,6.14,4.9.58,0,2.97-.1,7.17-.29,4.19-.19,7.55-.29,10.09-.29,7.12,0,12.38,1.12,15.8,3.36,4,2.73,6,7.36,6,13.89,0,7.99-4,14.04-11.99,18.14-6.24,3.22-13.8,4.83-22.67,4.83-6.53,0-11.94-1.32-16.23-3.95-5.17-3.22-7.75-7.9-7.75-14.04,0-6.83,3.22-11.99,9.65-15.5-2.34-1.85-3.51-4.19-3.51-7.02,0-5.17,2.24-8.68,6.73-10.53.68-.29,1.02-.63,1.02-1.02s-.3-.73-.89-1.02c-8.67-3.8-13-10.14-13-19.01,0-6.44,2.52-11.68,7.57-15.72,5.04-4.04,11.29-6.07,18.73-6.07,4.6,0,8.86.83,12.78,2.49l24.39-1.02c1.08,0,1.62.39,1.62,1.17v3.66ZM769.83,215.37c0-3.8-1.27-6.49-3.8-8.04-2.54-1.56-6.87-2.34-13.02-2.34-2.83,0-6.9.07-12.21.22-5.32.15-8.26.22-8.85.22-3.02.97-4.53,3.95-4.53,8.92,0,4.58,2.58,8.09,7.75,10.53,4,1.85,8.68,2.78,14.04,2.78,13.75,0,20.62-4.1,20.62-12.28ZM761.34,165.49c0-11.8-5.53-17.7-16.6-17.7-9.6,0-14.4,4.83-14.4,14.48,0,5.56,1.42,10,4.26,13.31,2.84,3.32,7,4.97,12.49,4.97,4.6,0,8.13-1.36,10.58-4.1,2.45-2.73,3.67-6.38,3.67-10.97Z"/>
  <path class="cls-2" d="M848.66,202.2l-3.22-.88c-3.22-.88-4.83-3.07-4.83-6.58v-29.4c0-7.41-1.88-13.14-5.63-17.18-3.75-4.04-8.75-6.07-14.99-6.07-8,0-14.09,2.78-18.28,8.34-.2.2-.44.24-.73.15-.29-.1-.44-.34-.44-.73v-28.52l.59-9.65c.1-1.17-.59-1.75-2.05-1.75h-19.89c-1.56,0-2.34.39-2.34,1.17,0,.88.78,1.41,2.34,1.61l6,.88c3.22.49,4.83,2.63,4.83,6.44v67.74h0v5.82l-.58,9.65c-.1,1.17.58,1.76,2.05,1.76h16.96c1.56,0,2.34-.39,2.34-1.17,0-.59-.78-1.12-2.34-1.61l-3.07-.88c-3.22-.88-4.83-3.07-4.83-6.58v-33.49c0-3.22,1.9-6,5.7-8.34,3.31-2.05,6.73-3.07,10.24-3.07,9.07,0,13.6,4.39,13.6,13.16v31.45c0,3.8-.61,6.31-1.83,7.53-1.22,1.22-1.83,1.88-1.83,1.97,0,.68.63,1.02,1.9,1.02h20.18c1.56,0,2.34-.39,2.34-1.17,0-.49-.73-1.02-2.19-1.61Z"/>
  <path class="cls-2" d="M889.9,201.28c.19.48.1.86-.29,1.15-3.02,2.19-7.02,3.29-11.99,3.29-11.99,0-17.99-4.4-17.99-13.2v-41.64h-11.55c-.98,0-1.46-.46-1.46-1.37v-4.42c0-1.02.49-1.52,1.46-1.52h8.48c1.66,0,2.97-1.12,3.95-3.36l6.87-16.38c.39-.88.88-1.32,1.46-1.32.88,0,1.32.59,1.32,1.76v19.31h16.67c.97,0,1.46.39,1.46,1.17v4.97c0,.78-.44,1.17-1.32,1.17h-16.82v38.86c0,7.73,3.02,11.6,9.07,11.6,3.31,0,6.14-.68,8.48-2.05.59-.59,1.07-.54,1.46.14l.73,1.86Z"/>
  <path class="cls-2" d="M373.37,207.17c-4.03.87-12.77,4.56-21.37,9.46h5.9c8.58-4.69,17.15-8.58,24.05-10.18.96-.22,1.95-.5,2.78-.8l-11.36,1.51Z"/>
  <path class="cls-2" d="M338.48,228.26s16.77-11.32,32.67-11.47c20.7-.22,39.84,31.26,64.38,31.26,22.91,0,32.95-15.75,37.73-28.74l-.99-.45c-8.9,13.18-18.04,17.67-32.68,17.67-25.61,0-34.2-25.54-68.39-25.16-18.13.18-32.89,14.25-32.72,16.88"/>
  <g>
    <g>
      <polygon class="cls-2" points="110.9 100.7 116.34 89.79 131.3 98.12 126.55 107.63 110.9 100.7"/>
      <polygon class="cls-2" points="122.74 79.42 130.05 69.67 143.27 80.55 136.89 89.06 122.74 79.42"/>
      <polygon class="cls-2" points="138.2 60.62 147.13 52.34 158.19 65.4 150.39 72.64 138.2 60.62"/>
      <polygon class="cls-2" points="156.77 44.89 167.05 38.35 175.58 53.19 166.61 58.9 156.77 44.89"/>
      <polygon class="cls-2" points="188.85 54.65 198.16 50.87 202.86 64.18 194.74 67.47 188.85 54.65"/>
      <polygon class="cls-2" points="171.45 64.65 179.92 59.25 186.96 71.49 179.56 76.2 171.45 64.65"/>
      <polygon class="cls-2" points="129.34 189.19 126.75 179.48 140.53 176.46 142.79 184.93 129.34 189.19"/>
      <polygon class="cls-2" points="125.04 169.58 124.23 159.58 138.33 159.07 139.04 167.82 125.04 169.58"/>
      <polygon class="cls-2" points="124.32 149.54 125.31 139.54 139.27 141.57 138.41 150.29 124.32 149.54"/>
      <polygon class="cls-2" points="127.2 129.67 129.99 120.01 143.35 124.53 140.92 132.96 127.2 129.67"/>
      <polygon class="cls-2" points="133.64 110.65 138.12 101.66 150.45 108.52 146.54 116.37 133.64 110.65"/>
      <polygon class="cls-2" points="198.23 74.89 205.67 71.88 209.42 82.5 202.94 85.13 198.23 74.89"/>
      <polygon class="cls-2" points="156.14 77.62 163.5 70.79 172.62 81.56 166.19 87.52 156.14 77.62"/>
      <polygon class="cls-2" points="185.03 48.31 177.88 32.76 189.18 28.18 194.88 44.32 185.03 48.31"/>
      <polygon class="cls-2" points="184.34 82.88 191.11 78.57 196.72 88.33 190.82 92.09 184.34 82.88"/>
      <polygon class="cls-2" points="172.12 93.23 178 87.78 185.28 96.37 180.14 101.14 172.12 93.23"/>
      <polygon class="cls-2" points="143.4 93.11 149.42 85.08 160.32 94.04 155.06 101.06 143.4 93.11"/>
      <polygon class="cls-2" points="161.95 105.6 166.75 99.18 175.46 106.34 171.26 111.94 161.95 105.6"/>
      <polygon class="cls-2" points="154.16 119.6 157.73 112.42 167.58 117.9 164.45 124.17 154.16 119.6"/>
      <polygon class="cls-2" points="149.02 134.79 151.24 127.07 161.91 130.69 159.97 137.41 149.02 134.79"/>
      <polygon class="cls-2" points="146.71 150.65 147.5 142.67 158.65 144.29 157.96 151.25 146.71 150.65"/>
      <polygon class="cls-2" points="147.29 166.65 146.65 158.67 157.9 158.26 158.47 165.24 147.29 166.65"/>
      <polygon class="cls-2" points="148.65 174.55 159.66 172.14 161.46 178.9 150.72 182.3 148.65 174.55"/>
      <polygon class="cls-2" points="105.69 195.97 102.54 184.2 119.26 180.54 122.01 190.81 105.69 195.97"/>
      <polygon class="cls-2" points="100.47 172.19 99.49 160.06 116.6 159.44 117.46 170.05 100.47 172.19"/>
      <polygon class="cls-2" points="99.59 147.88 100.79 135.75 117.73 138.21 116.69 148.79 99.59 147.88"/>
      <polygon class="cls-2" points="103.09 123.78 106.47 112.05 122.69 117.54 119.74 127.76 103.09 123.78"/>
    </g>
    <g>
      <polygon class="cls-3" points="265.92 172.01 273 181.93 258.62 191.23 252.45 182.56 265.92 172.01"/>
      <polygon class="cls-3" points="279.15 192.45 284.32 203.48 268.51 210.05 263.99 200.41 279.15 192.45"/>
      <polygon class="cls-3" points="288.48 214.92 291.6 226.7 274.87 230.33 272.15 220.05 288.48 214.92"/>
      <polygon class="cls-3" points="293.65 238.71 294.6 250.86 277.49 251.42 276.66 240.82 293.65 238.71"/>
      <polygon class="cls-3" points="269.97 262.45 268.93 272.44 254.98 270.34 255.89 261.63 269.97 262.45"/>
      <polygon class="cls-3" points="269.31 242.39 270.1 252.41 256 252.87 255.31 244.13 269.31 242.39"/>
      <polygon class="cls-3" points="179.14 146.73 188.93 149 185.12 162.59 176.58 160.61 179.14 146.73"/>
      <polygon class="cls-3" points="198.46 152.14 207.67 156.12 201.5 168.81 193.45 165.33 198.46 152.14"/>
      <polygon class="cls-3" points="216.5 160.91 224.86 166.48 216.52 177.86 209.22 173 216.5 160.91"/>
      <polygon class="cls-3" points="232.69 172.79 239.91 179.79 229.64 189.46 223.34 183.36 232.69 172.79"/>
      <polygon class="cls-3" points="246.46 187.41 252.29 195.59 240.44 203.25 235.35 196.11 246.46 187.41"/>
      <polygon class="cls-3" points="247.69 261.23 246.86 269.21 235.72 267.53 236.45 260.58 247.69 261.23"/>
      <polygon class="cls-3" points="265.06 222.78 267.63 232.49 253.84 235.48 251.59 227 265.06 222.78"/>
      <polygon class="cls-3" points="277.36 262.05 294.45 263.04 293.19 275.17 276.26 272.62 277.36 262.05"/>
      <polygon class="cls-3" points="247.17 245.22 247.79 253.21 236.54 253.58 235.99 246.6 247.17 245.22"/>
      <polygon class="cls-3" points="243.77 229.56 245.82 237.31 234.81 239.7 233.02 232.93 243.77 229.56"/>
      <polygon class="cls-3" points="257.36 204.26 261.63 213.35 248.59 218.76 244.87 210.82 257.36 204.26"/>
      <polygon class="cls-3" points="237.62 214.77 241.03 222.03 230.63 226.35 227.65 220.01 237.62 214.77"/>
      <polygon class="cls-3" points="228.92 201.32 233.58 207.85 224.12 213.97 220.05 208.27 228.92 201.32"/>
      <polygon class="cls-3" points="217.93 189.65 223.69 195.23 215.49 202.96 210.46 198.09 217.93 189.65"/>
      <polygon class="cls-3" points="205 180.17 211.68 184.61 205.02 193.7 199.19 189.82 205 180.17"/>
      <polygon class="cls-3" points="190.6 173.16 197.96 176.34 193.03 186.47 186.6 183.69 190.6 173.16"/>
      <polygon class="cls-3" points="182.99 170.65 179.95 181.5 173.13 179.92 175.17 168.84 182.99 170.65"/>
      <polygon class="cls-3" points="184.25 122.66 196.13 125.41 191.51 141.9 181.15 139.5 184.25 122.66"/>
      <polygon class="cls-3" points="207.7 129.23 218.87 134.06 211.39 149.45 201.61 145.23 207.7 129.23"/>
      <polygon class="cls-3" points="229.58 139.87 239.72 146.62 229.6 160.42 220.74 154.53 229.58 139.87"/>
      <polygon class="cls-3" points="249.21 154.27 257.98 162.76 245.52 174.5 237.88 167.1 249.21 154.27"/>
    </g>
    <g>
      <polygon class="cls-1" points="126.92 272.49 114.77 273.47 114.16 256.36 124.77 255.5 126.92 272.49"/>
      <polygon class="cls-1" points="102.59 273.35 90.46 272.13 92.93 255.2 103.52 256.26 102.59 273.35"/>
      <polygon class="cls-1" points="78.5 269.84 66.8 266.47 72.26 250.25 82.49 253.19 78.5 269.84"/>
      <polygon class="cls-1" points="55.44 262.07 44.52 256.65 52.81 241.68 62.34 246.4 55.44 262.07"/>
      <polygon class="cls-1" points="47.2 229.57 39.16 223.55 48.12 212.65 55.13 217.89 47.2 229.57"/>
      <polygon class="cls-1" points="64.76 239.29 55.76 234.83 62.6 222.48 70.45 226.38 64.76 239.29"/>
      <polygon class="cls-1" points="193.13 210.96 186.17 218.19 176.45 207.96 182.53 201.64 193.13 210.96"/>
      <polygon class="cls-1" points="178.57 224.77 170.43 230.63 162.7 218.83 169.83 213.7 178.57 224.77"/>
      <polygon class="cls-1" points="161.79 235.75 152.72 240.07 147.24 227.07 155.15 223.3 161.79 235.75"/>
      <polygon class="cls-1" points="143.3 243.55 133.58 246.16 130.55 232.39 139.02 230.11 143.3 243.55"/>
      <polygon class="cls-1" points="123.68 247.88 113.67 248.69 113.17 234.59 121.91 233.88 123.68 247.88"/>
      <polygon class="cls-1" points="59.68 211.07 53.26 206.26 60.41 197.56 66.01 201.75 59.68 211.07"/>
      <polygon class="cls-1" points="83.78 245.69 74.12 242.92 78.63 229.55 87.06 231.97 83.78 245.69"/>
      <polygon class="cls-1" points="43.76 236.11 34.14 250.27 24.38 242.97 35.25 229.75 43.76 236.11"/>
      <polygon class="cls-1" points="73.7 218.83 66.51 215.27 71.97 205.41 78.24 208.52 73.7 218.83"/>
      <polygon class="cls-1" points="88.88 223.94 81.17 221.73 84.77 211.05 91.5 212.99 88.88 223.94"/>
      <polygon class="cls-1" points="103.63 248.59 93.63 247.59 95.67 233.63 104.4 234.5 103.63 248.59"/>
      <polygon class="cls-1" points="104.72 226.26 96.75 225.46 98.37 214.31 105.34 215.01 104.72 226.26"/>
      <polygon class="cls-1" points="120.74 225.69 112.74 226.33 112.34 215.08 119.32 214.51 120.74 225.69"/>
      <polygon class="cls-1" points="136.4 222.24 128.64 224.32 126.22 213.32 132.98 211.5 136.4 222.24"/>
      <polygon class="cls-1" points="151.16 216.01 143.92 219.46 139.54 209.08 145.86 206.07 151.16 216.01"/>
      <polygon class="cls-1" points="164.56 207.24 158.06 211.92 151.89 202.49 157.58 198.4 164.56 207.24"/>
      <polygon class="cls-1" points="170.62 201.99 162.87 193.81 167.72 188.77 176.19 196.21 170.62 201.99"/>
      <polygon class="cls-1" points="211.17 227.69 202.72 236.47 190.94 224.05 198.31 216.39 211.17 227.69"/>
      <polygon class="cls-1" points="193.51 244.45 183.63 251.56 174.25 237.24 182.9 231.02 193.51 244.45"/>
      <polygon class="cls-1" points="173.15 257.77 162.15 263.02 155.49 247.25 165.1 242.67 173.15 257.77"/>
      <polygon class="cls-1" points="150.71 267.24 138.93 270.41 135.24 253.69 145.52 250.93 150.71 267.24"/>
    </g>
  </g>
</svg>