<?xml version="1.0" encoding="UTF-8"?><svg id="Layer_1" xmlns="http://www.w3.org/2000/svg" viewBox="0 0 2352.19 753.49"><path d="M976.37,481.17c.57-.71,1.18-1.45,1.72-2.19,18.48-23.81,29.72-54.3,29.88-87.38-.11-7.52-.79-14.55-1.97-21.16-2.62-18.56-8.78-35.93-17.64-51.35.33.38.66.79.98,1.18-22.15-39.4-62.09-66.14-107.7-67.15h-.66c-.68,0-1.37-.03-2.05-.03h-.71c-.68,0-1.37,0-2.05.03h-.66c-45.58,1.01-85.52,27.78-107.7,67.15.33-.41.66-.79.98-1.18-9.46,16.38-15.78,35-18.1,54.9-.85,5.71-1.37,11.76-1.45,18.13.38,75.52,58.32,137.47,128.97,137.47,39.02,0,74.18-18.76,97.88-48.12.08-.08.14-.19.22-.27l.03-.03ZM864.44,271.17c.6-.08,1.2-.19,1.8-.27.63-.08,1.29-.16,1.91-.25,1.07-.14,2.16-.22,3.25-.33.55-.05,1.09-.08,1.64-.14.68-.05,1.37-.08,2.08-.11.74-.03,1.45-.05,2.19-.05h2.68c.74,0,1.45.03,2.19.05.68.03,1.39.05,2.08.11.55.03,1.09.08,1.64.14,1.09.08,2.19.19,3.25.33.63.08,1.29.16,1.91.25.6.08,1.2.16,1.8.27.68.11,1.37.25,2.05.36,54.71,10.12,76.01,70.43,76.01,119.76,0,29.28-7.49,62.2-24.96,86.32,0,0-.03.05-.05.08-.52.71-1.04,1.39-1.59,2.11-14.74,18.95-36.04,31.8-65.24,31.83-4.35,0-8.69-.33-12.99-.93-2.98-.27-5.93-.63-8.86-1.07-9.57-2.35-18.05-6.32-25.51-11.48.22.08.44.16.66.22-32.62-22.42-45.93-68.03-45.93-107.07,0-49.35,21.3-109.64,76.01-119.76.68-.14,1.37-.25,2.05-.36h-.08Z"/><path d="M1214.54,519.29c0,2.13-2.13,3.2-6.4,3.2h-40.38c-2.93,0-5.06-1.48-6.4-4.4l-6.4-14c-1.34-2.65-2.68-2.79-3.99-.41-11.46,15.2-28.13,22.8-49.98,22.8-17.06,0-30.73-5.52-40.98-16.6-10.25-11.05-15.39-26.71-15.39-47v-80.38c0-9.6-4.4-15.58-13.21-17.99l-8.39-2.41c-4.27-1.34-6.4-2.79-6.4-4.4,0-2.13,2.13-3.2,6.4-3.2h55.17c3.47,0,5.19.93,5.19,2.79,0,.27-1.67,2.08-5,5.39-3.34,3.34-5,11.26-5,23.79v82.76c0,24.01,12.39,35.98,37.18,35.98,9.32,0,18.65-2.79,28-8.39,10.39-6.4,15.58-14,15.58-22.8v-91.57c0-9.6-4.4-15.58-13.21-17.99l-8.39-2.41c-4.27-1.34-6.4-2.79-6.4-4.4,0-2.13,2.13-3.2,6.4-3.2h46.78c3.72,0,5.47,1.61,5.19,4.81l-1.61,26.38v109.17c0,9.87,4.54,15.72,13.59,17.61l11.18,2.41c4.54,1.07,6.81,2.54,6.81,4.4l.06.05Z"/><path d="M1380.48,519.29c0,2.13-2.13,3.2-6.4,3.2h-39.59c-2.93,0-5.19-1.48-6.81-4.4l-3.2-5.6c-1.07-1.86-2.41-2.79-3.99-2.79s-3.34.66-5.19,2c-14.14,9.87-30.79,14.79-49.98,14.79-14.41,0-26-3.61-34.78-10.8-9.6-7.98-14.41-18.78-14.41-32.4,0-19.19,9.19-32.78,27.59-40.79,5.6-2.41,14.41-4.92,26.38-7.6,14.93-3.47,24.66-5.85,29.2-7.19,14.14-4.27,21.19-11.05,21.19-20.4v-15.58c0-8.8-4.27-15.58-12.8-20.4-6.94-3.72-14.79-5.6-23.6-5.6-14.65,0-25.54,3.2-32.59,9.6-7.08,6.4-12.19,17.2-15.39,32.4-.55,1.34-1.48,2-2.79,2-1.59,0-2.41-.79-2.41-2.41l-.41-47.98c0-2.41,1.34-3.72,3.99-3.99,4.27-.27,12.66-1.2,25.18-2.79,10.39-1.34,18.78-2,25.18-2,21.33,0,37.05,4.13,47.19,12.39,11.46,9.6,17.2,25.32,17.2,47.19v84.38c0,10.39,4.27,16.4,12.8,17.99l12,2.41c4.27.79,6.4,2.27,6.4,4.4h.03ZM1320.49,480.9v-39.59c0-3.47-1.48-4.54-4.4-3.2l-52.39,15.2c-13.07,3.75-19.6,11.46-19.6,23.19,0,23.19,10.39,34.78,31.2,34.78,12.52,0,23.19-2.87,31.99-8.59,8.8-5.74,13.21-12.99,13.21-21.79h0Z"/><path d="M1717.38,475.71c0,33.85-20.67,50.77-61.98,50.77-18.13,0-36.94-2.68-56.38-8.01-3.47-1.07-5.6-4.92-6.4-11.59,0-4.81-.14-9.79-.41-14.98-.27-5.19-.93-12.19-2-21-.55-3.2.41-4.81,2.79-4.81s3.86,1.48,4.4,4.4c5.6,15.99,13.45,26.93,23.6,32.78,8.8,5.33,21.85,8.01,39.18,8.01,8.26,0,15.72-2.13,22.39-6.4,7.74-5.06,11.59-11.59,11.59-19.6,0-11.46-8.67-20.92-26-28.38-15.72-6.67-31.58-13.45-47.57-20.4-17.33-9.6-26-22.53-26-38.8,0-31.44,18.54-47.19,55.59-47.19,13.07,0,31.2,1.61,54.38,4.81,2.65.27,3.99,1.61,3.99,3.99l.79,39.59c0,3.2-.79,4.78-2.41,4.78-1.34,0-2.41-1.2-3.2-3.61-4.81-14.41-11.46-24.01-19.99-28.79-7.46-4.27-19.47-6.4-35.98-6.4-20.81,0-31.2,8.01-31.2,24.01,0,9.08,8.67,17.33,26,24.8,30.65,13.07,46.92,20.12,48.78,21.19,17.33,10.39,26,23.98,26,40.79l.03.03Z"/><path d="M1814.14,514.12l-13.59-2.41c-8.8-1.61-13.21-7.46-13.21-17.61v-43.8h0v-64.61l1.59-26.38c.27-3.2-1.59-4.81-5.6-4.81h-51.59c-4.27,0-6.4,1.07-6.4,3.2s2.13,3.61,6.4,4.4l13.59,2.41c8.8,1.61,13.21,7.46,13.21,17.61v39.92h0v68.49l-1.59,26.38c-.27,3.2,1.59,4.81,5.6,4.81h51.59c4.27,0,6.4-1.07,6.4-3.2s-2.13-3.61-6.4-4.4Z"/><path d="M1577.83,514.89l-8.39-2.41c-8.8-2.41-13.21-8.39-13.21-17.99v-80.38c0-20.26-5.14-35.93-15.39-46.97-10.28-11.05-23.92-16.6-40.98-16.6-21.87,0-38.52,7.6-49.98,22.8-1.34,2.41-2.68,2.27-3.99-.41l-6.4-14c-1.34-2.93-3.47-4.4-6.4-4.4h-45.2c-4.27,0-6.4,1.07-6.4,3.2,0,2.41,2.13,3.88,6.4,4.4l16.4,2.41c9.05,1.34,13.59,7.19,13.59,17.61v79.73s.03.11.05.14v29.31l-1.59,26.38c-.27,3.2,1.59,4.81,5.6,4.81h46.34c4.27,0,6.4-1.07,6.4-3.2,0-1.61-2.13-3.06-6.4-4.4l-8.39-2.41c-8.8-2.41-13.21-8.39-13.21-17.99v-91.57c0-8.53,5.33-16.13,15.99-22.8,9.6-5.6,18.78-8.39,27.59-8.39,24.8,0,37.18,12,37.18,35.98v82.79c0,12.52-1.67,20.45-5,23.79-3.34,3.34-5,5.14-5,5.39,0,1.86,1.72,2.79,5.19,2.79h55.17c4.27,0,6.4-1.07,6.4-3.2,0-1.61-2.13-3.06-6.4-4.4h0Z"/><path d="M1788.96,288.55c0,5.6-2.32,10.61-6.92,14.98-4.62,4.4-9.82,6.59-15.64,6.59-4.48,0-8.37-1.53-11.67-4.59-3.31-3.06-4.95-6.86-4.95-11.4,0-5.85,2.24-10.94,6.73-15.2,4.48-4.27,9.62-6.4,15.45-6.4,11.35,0,17.03,5.33,17.03,15.99l-.03.03Z"/><path d="M2002.91,367.74c0,2.68-1.48,3.99-4.4,3.99l-43.58,1.2c9.05,9.9,13.59,22.34,13.59,37.35,0,17.66-6.81,32.04-20.4,43.17-13.59,11.1-30.54,16.68-50.77,16.68h-11.59c-15.99,0-24.01,5.14-24.01,15.39,0,8.94,5.6,13.4,16.79,13.4,1.59,0,8.12-.27,19.6-.79,11.46-.52,20.64-.79,27.59-.79,19.47,0,33.85,3.06,43.2,9.19,10.94,7.46,16.4,20.12,16.4,37.98,0,21.85-10.94,38.39-32.78,49.6-17.06,8.8-37.73,13.21-61.98,13.21-17.85,0-32.65-3.61-44.38-10.8-14.14-8.8-21.19-21.6-21.19-38.39,0-18.67,8.8-32.78,26.38-42.38-6.4-5.06-9.6-11.46-9.6-19.19,0-14.14,6.12-23.73,18.4-28.79,1.86-.79,2.79-1.72,2.79-2.79s-.82-2-2.43-2.79c-23.7-10.39-35.54-27.72-35.54-51.98,0-17.61,6.89-31.93,20.7-42.98,13.78-11.05,30.87-16.6,51.21-16.6,12.58,0,24.22,2.27,34.94,6.81l66.69-2.79c2.95,0,4.43,1.07,4.43,3.2v10.01l-.05-.11ZM1962.91,550.9c0-10.39-3.47-17.74-10.39-21.98-6.94-4.27-18.78-6.4-35.6-6.4-7.74,0-18.87.19-33.38.6-14.55.41-22.58.6-24.2.6-8.26,2.65-12.39,10.8-12.39,24.39,0,12.52,7.05,22.12,21.19,28.79,10.94,5.06,23.73,7.6,38.39,7.6,37.59,0,56.38-11.21,56.38-33.58v-.03ZM1939.72,414.54c0-32.26-15.12-48.39-45.39-48.39-26.25,0-39.37,13.21-39.37,39.59,0,15.2,3.88,27.34,11.65,36.39,7.77,9.08,19.14,13.59,34.15,13.59,12.58,0,22.23-3.72,28.93-11.21,6.7-7.46,10.03-17.44,10.03-29.99v.03Z"/><path d="M2178.47,514.89l-8.8-2.41c-8.8-2.41-13.21-8.39-13.21-17.99v-80.38c0-20.26-5.14-35.93-15.39-46.97-10.25-11.05-23.92-16.6-40.98-16.6-21.87,0-38.52,7.6-49.98,22.8-.55.55-1.2.66-2,.41-.79-.27-1.2-.93-1.2-2v-77.98l1.61-26.38c.27-3.2-1.61-4.78-5.6-4.78h-54.38c-4.27,0-6.4,1.07-6.4,3.2,0,2.41,2.13,3.86,6.4,4.4l16.4,2.41c8.8,1.34,13.21,7.19,13.21,17.61v185.21h0v15.91l-1.59,26.38c-.27,3.2,1.59,4.81,5.6,4.81h46.37c4.27,0,6.4-1.07,6.4-3.2,0-1.61-2.13-3.06-6.4-4.4l-8.39-2.41c-8.8-2.41-13.21-8.39-13.21-17.99v-91.57c0-8.8,5.19-16.4,15.58-22.8,9.05-5.6,18.4-8.39,28-8.39,24.8,0,37.18,12,37.18,35.98v85.99c0,10.39-1.67,17.25-5,20.59-3.34,3.34-5,5.14-5,5.39,0,1.86,1.72,2.79,5.19,2.79h55.17c4.27,0,6.4-1.07,6.4-3.2,0-1.34-2-2.79-5.99-4.4v-.03Z"/><path d="M2291.22,512.37c.52,1.31.27,2.35-.79,3.14-8.26,5.99-19.19,9-32.78,9-32.78,0-49.19-12.03-49.19-36.09v-113.85h-31.58c-2.68,0-3.99-1.26-3.99-3.75v-12.08c0-2.79,1.34-4.16,3.99-4.16h23.19c4.54,0,8.12-3.06,10.8-9.19l18.78-44.79c1.07-2.41,2.41-3.61,3.99-3.61,2.41,0,3.61,1.61,3.61,4.81v52.8h45.58c2.65,0,3.99,1.07,3.99,3.2v13.59c0,2.13-1.2,3.2-3.61,3.2h-45.99v106.25c0,21.13,8.26,31.72,24.8,31.72,9.05,0,16.79-1.86,23.19-5.6,1.61-1.61,2.93-1.48,3.99.38l2,5.09.03-.05Z"/><path d="M878.96,528.48c-11.02,2.38-34.91,12.47-58.43,25.86h16.13c23.46-12.82,46.89-23.46,65.76-27.83,2.62-.6,5.33-1.37,7.6-2.19l-31.06,4.13v.03Z"/><path d="M783.56,586.14s45.85-30.95,89.32-31.36c56.6-.6,108.93,85.47,176.02,85.47,62.64,0,90.09-43.06,103.16-78.58l-2.71-1.23c-24.33,36.04-49.32,48.31-89.35,48.31-70.02,0-93.51-69.83-186.99-68.79-49.57.49-89.93,38.96-89.46,46.15"/><polygon points="253.75 263.01 265.88 238.67 299.25 257.25 288.65 278.49 253.75 263.01"/><polygon points="280.16 215.55 296.46 193.79 325.95 218.05 311.71 237.04 280.16 215.55"/><polygon points="314.63 173.6 334.57 155.13 359.24 184.28 341.84 200.42 314.63 173.6"/><polygon points="356.08 138.51 379.03 123.89 398.06 157.01 378.04 169.76 356.08 138.51"/><polygon points="427.65 160.27 448.42 151.86 458.9 181.52 440.8 188.87 427.65 160.27"/><polygon points="388.83 182.59 407.72 170.54 423.42 197.84 406.93 208.34 388.83 182.59"/><polygon points="294.89 460.43 289.09 438.78 319.85 432.04 324.89 450.93 294.89 460.43"/><polygon points="285.3 416.69 283.48 394.39 314.94 393.24 316.53 412.76 285.3 416.69"/><polygon points="283.67 371.99 285.88 349.68 317.04 354.2 315.1 373.65 283.67 371.99"/><polygon points="290.1 327.65 296.32 306.1 326.14 316.18 320.72 334.99 290.1 327.65"/><polygon points="304.46 285.21 314.48 265.16 341.98 280.47 333.26 297.96 304.46 285.21"/><polygon points="448.59 205.44 465.18 198.71 473.55 222.41 459.1 228.26 448.59 205.44"/><polygon points="354.67 211.52 371.1 196.29 391.45 220.3 377.09 233.61 354.67 211.52"/><polygon points="419.12 146.14 403.17 111.43 428.38 101.22 441.09 137.23 419.12 146.14"/><polygon points="417.59 223.24 432.68 213.63 445.22 235.43 432.04 243.82 417.59 223.24"/><polygon points="390.32 246.34 403.44 234.19 419.68 253.36 408.23 264 390.32 246.34"/><polygon points="326.24 246.09 339.67 228.17 363.99 248.14 352.27 263.82 326.24 246.09"/><polygon points="367.63 273.96 378.35 259.64 397.76 275.6 388.41 288.1 367.63 273.96"/><polygon points="350.25 305.17 358.23 289.17 380.19 301.39 373.21 315.37 350.25 305.17"/><polygon points="338.78 339.06 343.74 321.86 367.55 329.92 363.21 344.92 338.78 339.06"/><polygon points="333.64 374.47 335.41 356.64 360.27 360.26 358.74 375.8 333.64 374.47"/><polygon points="334.94 410.16 333.49 392.35 358.6 391.42 359.88 407.02 334.94 410.16"/><polygon points="337.97 427.79 362.52 422.41 366.55 437.48 342.6 445.08 337.97 427.79"/><polygon points="242.1 475.58 235.09 449.3 272.39 441.13 278.51 464.05 242.1 475.58"/><polygon points="230.48 422.52 228.29 395.45 266.46 394.06 268.38 417.74 230.48 422.52"/><polygon points="228.52 368.27 231.19 341.22 268.98 346.7 266.66 370.3 228.52 368.27"/><polygon points="236.31 314.49 243.87 288.33 280.03 300.58 273.46 323.39 236.31 314.49"/><polygon points="599.6 422.1 615.4 444.25 583.33 464.98 569.55 445.66 599.6 422.1"/><polygon points="629.11 467.71 640.66 492.32 605.38 506.97 595.3 485.48 629.11 467.71"/><polygon points="649.95 517.86 656.9 544.12 619.58 552.24 613.5 529.28 649.95 517.86"/><polygon points="661.46 570.92 663.59 598.03 625.41 599.29 623.57 575.63 661.46 570.92"/><polygon points="608.65 623.9 606.33 646.18 575.19 641.51 577.22 622.06 608.65 623.9"/><polygon points="607.18 579.13 608.92 601.48 577.45 602.52 575.92 583.01 607.18 579.13"/><polygon points="405.98 365.71 427.82 370.77 419.33 401.09 400.28 396.67 405.98 365.71"/><polygon points="449.1 377.78 469.66 386.68 455.88 414.99 437.92 407.22 449.1 377.78"/><polygon points="489.34 397.35 508 409.77 489.38 435.16 473.09 424.33 489.34 397.35"/><polygon points="525.46 423.84 541.57 439.46 518.66 461.05 504.59 447.42 525.46 423.84"/><polygon points="556.18 456.45 569.2 474.71 542.75 491.8 531.39 475.87 556.18 456.45"/><polygon points="558.93 621.16 557.09 638.97 532.23 635.23 533.85 619.71 558.93 621.16"/><polygon points="597.66 535.38 603.4 557.04 572.65 563.73 567.63 544.82 597.66 535.38"/><polygon points="625.12 623.01 663.26 625.21 660.43 652.27 622.66 646.59 625.12 623.01"/><polygon points="557.77 585.43 559.16 603.28 534.05 604.11 532.83 588.53 557.77 585.43"/><polygon points="550.17 550.51 554.76 567.8 530.19 573.13 526.2 558.03 550.17 550.51"/><polygon points="580.5 494.07 590.01 514.34 560.94 526.43 552.63 508.7 580.5 494.07"/><polygon points="536.47 517.51 544.07 533.71 520.85 543.34 514.22 529.2 536.47 517.51"/><polygon points="517.05 487.5 527.44 502.07 506.34 515.71 497.27 503 517.05 487.5"/><polygon points="492.52 461.45 505.39 473.93 487.1 491.16 475.88 480.29 492.52 461.45"/><polygon points="463.69 440.31 478.59 450.23 463.73 470.5 450.72 461.84 463.69 440.31"/><polygon points="431.56 424.69 447.97 431.77 436.99 454.38 422.63 448.18 431.56 424.69"/><polygon points="414.57 419.09 407.78 443.3 392.59 439.77 397.14 415.04 414.57 419.09"/><polygon points="417.39 312.01 443.88 318.16 433.57 354.92 410.48 349.57 417.39 312.01"/><polygon points="469.69 326.66 494.63 337.44 477.93 371.77 456.13 362.36 469.69 326.66"/><polygon points="518.51 350.4 541.16 365.48 518.57 396.27 498.8 383.11 518.51 350.4"/><polygon points="562.34 382.55 581.87 401.48 554.08 427.68 537.03 411.15 562.34 382.55"/><polygon points="289.48 646.28 262.37 648.47 261.02 610.31 284.68 608.39 289.48 646.28"/><polygon points="235.19 648.22 208.15 645.5 213.66 607.7 237.28 610.08 235.19 648.22"/><polygon points="181.47 640.37 155.33 632.87 167.52 596.67 190.35 603.22 181.47 640.37"/><polygon points="129.98 623.04 105.63 610.95 124.13 577.55 145.39 588.09 129.98 623.04"/><polygon points="111.63 550.53 93.67 537.1 113.67 512.78 129.33 524.49 111.63 550.53"/><polygon points="150.8 572.22 130.72 562.26 145.97 534.72 163.49 543.4 150.8 572.22"/><polygon points="437.2 509.01 421.66 525.15 399.99 502.3 413.56 488.21 437.2 509.01"/><polygon points="404.72 539.82 386.56 552.9 369.32 526.56 385.21 515.11 404.72 539.82"/><polygon points="367.28 564.33 347.05 573.96 334.81 544.95 352.48 536.54 367.28 564.33"/><polygon points="326.01 581.73 304.35 587.56 297.56 556.81 316.48 551.73 326.01 581.73"/><polygon points="282.25 591.38 259.91 593.18 258.81 561.73 278.3 560.14 282.25 591.38"/><polygon points="139.46 509.26 125.14 498.54 141.09 479.11 153.59 488.47 139.46 509.26"/><polygon points="193.21 586.52 171.69 580.32 181.74 550.49 200.54 555.88 193.21 586.52"/><polygon points="103.94 565.12 82.47 596.71 60.71 580.43 84.95 550.92 103.94 565.12"/><polygon points="170.74 526.58 154.71 518.62 166.88 496.64 180.87 503.58 170.74 526.58"/><polygon points="204.61 537.98 187.42 533.03 195.44 509.22 210.46 513.54 204.61 537.98"/><polygon points="237.51 592.97 215.23 590.74 219.76 559.58 239.24 561.54 237.51 592.97"/><polygon points="239.97 543.13 222.16 541.35 225.79 516.49 241.35 518.04 239.97 543.13"/><polygon points="275.69 541.87 257.86 543.3 256.97 518.19 272.53 516.93 275.69 541.87"/><polygon points="310.62 534.18 293.32 538.81 287.91 514.28 303.01 510.23 310.62 534.18"/><polygon points="343.57 520.26 327.42 527.98 317.64 504.8 331.75 498.1 343.57 520.26"/><polygon points="373.47 500.71 358.95 511.16 345.19 490.11 357.89 480.99 373.47 500.71"/><polygon points="386.99 488.99 369.69 470.75 380.52 459.52 399.39 476.1 386.99 488.99"/><polygon points="477.45 546.35 458.59 565.94 432.32 538.23 448.77 521.14 477.45 546.35"/><polygon points="438.05 583.73 416.02 599.6 395.09 567.64 414.37 553.77 438.05 583.73"/><polygon points="392.63 613.45 368.08 625.16 353.23 589.97 374.65 579.75 392.63 613.45"/><polygon points="342.56 634.57 316.26 641.65 308.05 604.34 330.97 598.18 342.56 634.57"/></svg>